G04 #@! TF.FileFunction,Drawing*
%FSLAX46Y46*%
G04 Gerber Fmt 4.6, Leading zero omitted, Abs format (unit mm)*
G04 Created by KiCad (PCBNEW 4.0.2-stable) date 13/06/2016 12:50:08*
%MOMM*%
G01*
G04 APERTURE LIST*
%ADD10C,0.100000*%
%ADD11C,0.300000*%
G04 APERTURE END LIST*
D10*
D11*
X178235714Y-99914285D02*
X178307143Y-99842857D01*
X178378571Y-99914285D01*
X178307143Y-99985714D01*
X178235714Y-99914285D01*
X178378571Y-99914285D01*
X177378571Y-99199999D02*
X178878571Y-99199999D01*
X177450000Y-99199999D02*
X177378571Y-99057142D01*
X177378571Y-98771428D01*
X177450000Y-98628571D01*
X177521429Y-98557142D01*
X177664286Y-98485713D01*
X178092857Y-98485713D01*
X178235714Y-98557142D01*
X178307143Y-98628571D01*
X178378571Y-98771428D01*
X178378571Y-99057142D01*
X178307143Y-99199999D01*
X178378571Y-97628570D02*
X178307143Y-97771428D01*
X178164286Y-97842856D01*
X176878571Y-97842856D01*
X178307143Y-97128571D02*
X178378571Y-96985714D01*
X178378571Y-96699999D01*
X178307143Y-96557142D01*
X178164286Y-96485714D01*
X178092857Y-96485714D01*
X177950000Y-96557142D01*
X177878571Y-96699999D01*
X177878571Y-96914285D01*
X177807143Y-97057142D01*
X177664286Y-97128571D01*
X177592857Y-97128571D01*
X177450000Y-97057142D01*
X177378571Y-96914285D01*
X177378571Y-96699999D01*
X177450000Y-96557142D01*
X176950000Y-93914285D02*
X176878571Y-94057142D01*
X176878571Y-94271428D01*
X176950000Y-94485713D01*
X177092857Y-94628571D01*
X177235714Y-94699999D01*
X177521429Y-94771428D01*
X177735714Y-94771428D01*
X178021429Y-94699999D01*
X178164286Y-94628571D01*
X178307143Y-94485713D01*
X178378571Y-94271428D01*
X178378571Y-94128571D01*
X178307143Y-93914285D01*
X178235714Y-93842856D01*
X177735714Y-93842856D01*
X177735714Y-94128571D01*
X178307143Y-93271428D02*
X178378571Y-93057142D01*
X178378571Y-92699999D01*
X178307143Y-92557142D01*
X178235714Y-92485713D01*
X178092857Y-92414285D01*
X177950000Y-92414285D01*
X177807143Y-92485713D01*
X177735714Y-92557142D01*
X177664286Y-92699999D01*
X177592857Y-92985713D01*
X177521429Y-93128571D01*
X177450000Y-93199999D01*
X177307143Y-93271428D01*
X177164286Y-93271428D01*
X177021429Y-93199999D01*
X176950000Y-93128571D01*
X176878571Y-92985713D01*
X176878571Y-92628571D01*
X176950000Y-92414285D01*
M02*
