M48
;DRILL file {KiCad 4.0.2-stable} date 13/06/2016 12:16:24
;FORMAT={-:-/ absolute / inch / decimal}
FMAT,2
INCH,TZ
T1C0.016
T2C0.024
T3C0.030
T4C0.031
T5C0.032
T6C0.039
T7C0.039
T8C0.040
%
G90
G05
M72
T1
X6.2Y-4.2
X6.25Y-3.075
X6.25Y-3.3
X6.45Y-3.95
X6.45Y-4.
X6.525Y-3.075
X6.525Y-3.3
X6.8Y-3.075
X6.8Y-3.3
X7.Y-4.
X7.075Y-3.075
X7.075Y-3.3
T2
X6.1Y-3.225
X6.15Y-3.175
X6.2Y-3.225
X6.375Y-3.225
X6.425Y-3.175
X6.475Y-3.225
X6.65Y-3.225
X6.7Y-3.175
X6.75Y-3.225
X6.925Y-3.225
X6.925Y-3.425
X6.975Y-3.175
X6.975Y-3.375
X6.975Y-3.475
X7.025Y-3.225
T3
X6.075Y-3.525
X6.075Y-3.6234
X6.075Y-3.7219
T4
X6.075Y-3.95
X6.075Y-4.075
X6.075Y-4.1537
X6.275Y-3.475
X6.275Y-3.575
X6.275Y-3.675
X6.275Y-3.775
X6.575Y-3.475
X6.575Y-3.575
X6.575Y-3.675
X6.575Y-3.775
T5
X6.075Y-3.8516
T6
X6.075Y-4.4978
X6.075Y-4.675
X6.3309Y-4.4978
X6.3309Y-4.675
T7
X6.075Y-4.325
X6.1Y-2.925
X6.2Y-2.925
X6.375Y-2.925
X6.475Y-2.925
X6.475Y-4.325
X6.625Y-4.325
X6.65Y-2.925
X6.725Y-4.675
X6.75Y-2.925
X6.775Y-3.425
X6.775Y-3.825
X6.825Y-4.675
X6.925Y-2.925
X7.025Y-2.925
X7.025Y-4.325
T8
X6.5Y-4.6752
X6.8Y-4.075
X6.8Y-4.175
X6.9Y-4.075
X6.9Y-4.175
X7.Y-4.075
X7.Y-4.175
X7.0256Y-4.6752
T0
M30
