G04 #@! TF.FileFunction,Copper,L2,Bot,Signal*
%FSLAX46Y46*%
G04 Gerber Fmt 4.6, Leading zero omitted, Abs format (unit mm)*
G04 Created by KiCad (PCBNEW 4.0.2-stable) date 13/06/2016 12:50:08*
%MOMM*%
G01*
G04 APERTURE LIST*
%ADD10C,0.100000*%
%ADD11R,1.300000X1.300000*%
%ADD12C,1.300000*%
%ADD13O,1.600000X1.600000*%
%ADD14R,1.900000X2.000000*%
%ADD15C,1.900000*%
%ADD16R,2.000000X2.000000*%
%ADD17C,2.000000*%
%ADD18C,1.000760*%
%ADD19C,1.998980*%
%ADD20R,1.727200X1.727200*%
%ADD21O,1.727200X1.727200*%
%ADD22C,1.524000*%
%ADD23R,2.235200X2.235200*%
%ADD24C,0.800000*%
%ADD25C,0.250000*%
%ADD26C,0.254000*%
G04 APERTURE END LIST*
D10*
D11*
X154305000Y-100330000D03*
D12*
X154305000Y-97830000D03*
D11*
X154305000Y-103505000D03*
D12*
X154305000Y-105505000D03*
D13*
X159385000Y-88265000D03*
X159385000Y-90805000D03*
X159385000Y-93345000D03*
X159385000Y-95885000D03*
X167005000Y-95885000D03*
X167005000Y-93345000D03*
X167005000Y-90805000D03*
X167005000Y-88265000D03*
D14*
X157480000Y-74295000D03*
D15*
X154940000Y-74295000D03*
D14*
X164465000Y-74295000D03*
D15*
X161925000Y-74295000D03*
D14*
X171450000Y-74295000D03*
D15*
X168910000Y-74295000D03*
D14*
X178435000Y-74295000D03*
D15*
X175895000Y-74295000D03*
D16*
X173355000Y-118745000D03*
D17*
X170815000Y-118745000D03*
D18*
X156210000Y-80645000D03*
X157480000Y-81915000D03*
X154940000Y-81915000D03*
X163195000Y-80645000D03*
X164465000Y-81915000D03*
X161925000Y-81915000D03*
X170180000Y-80645000D03*
X171450000Y-81915000D03*
X168910000Y-81915000D03*
X177165000Y-80645000D03*
X178435000Y-81915000D03*
X175895000Y-81915000D03*
X175895000Y-86995000D03*
X177165000Y-85725000D03*
X177165000Y-88265000D03*
D19*
X172085000Y-86995000D03*
X172085000Y-97155000D03*
X164465000Y-109855000D03*
X154305000Y-109855000D03*
X168275000Y-109855000D03*
X178435000Y-109855000D03*
D20*
X177800000Y-103505000D03*
D21*
X177800000Y-106045000D03*
X175260000Y-103505000D03*
X175260000Y-106045000D03*
X172720000Y-103505000D03*
X172720000Y-106045000D03*
D22*
X160805000Y-118745000D03*
X160805000Y-114245000D03*
X154305000Y-118745000D03*
X154305000Y-114245000D03*
X154305000Y-94535000D03*
X154305000Y-92035000D03*
X154305000Y-89535000D03*
D23*
X165100000Y-118750000D03*
X178450000Y-118750000D03*
D24*
X177800000Y-101600000D03*
X163830000Y-101600000D03*
X163830000Y-100330000D03*
X157480000Y-106680000D03*
X158750000Y-78105000D03*
X158750000Y-83820000D03*
X165735000Y-78105000D03*
X165735000Y-83820000D03*
X172720000Y-78105000D03*
X172720000Y-83820000D03*
X179705000Y-78105000D03*
X179705000Y-83820000D03*
D25*
X152400000Y-79375000D02*
X151765000Y-80010000D01*
X180594000Y-87376000D02*
X180594000Y-105156000D01*
X179705000Y-106045000D02*
X177800000Y-106045000D01*
X180594000Y-105156000D02*
X179705000Y-106045000D01*
X170815000Y-118745000D02*
X170815000Y-119380000D01*
X177165000Y-88265000D02*
X173355000Y-88265000D01*
X170815000Y-88265000D02*
X167005000Y-88265000D01*
X171450000Y-88900000D02*
X170815000Y-88265000D01*
X172720000Y-88900000D02*
X171450000Y-88900000D01*
X173355000Y-88265000D02*
X172720000Y-88900000D01*
X175895000Y-79375000D02*
X179705000Y-79375000D01*
X179705000Y-88265000D02*
X177165000Y-88265000D01*
X180594000Y-87376000D02*
X179705000Y-88265000D01*
X180594000Y-80264000D02*
X180594000Y-87376000D01*
X179705000Y-79375000D02*
X180594000Y-80264000D01*
X154940000Y-79375000D02*
X154940000Y-74295000D01*
X161925000Y-79375000D02*
X161925000Y-74295000D01*
X168910000Y-79375000D02*
X168910000Y-74295000D01*
X151765000Y-106045000D02*
X151765000Y-80010000D01*
X175895000Y-79375000D02*
X175895000Y-74295000D01*
X152400000Y-79375000D02*
X154940000Y-79375000D01*
X154940000Y-79375000D02*
X161925000Y-79375000D01*
X161925000Y-79375000D02*
X168910000Y-79375000D01*
X168910000Y-79375000D02*
X175895000Y-79375000D01*
X154305000Y-103505000D02*
X154305000Y-100330000D01*
X165100000Y-118745000D02*
X164465000Y-118745000D01*
X164465000Y-118745000D02*
X162560000Y-120650000D01*
X151765000Y-106045000D02*
X154305000Y-103505000D01*
X151765000Y-118745000D02*
X151765000Y-106045000D01*
X153670000Y-120650000D02*
X151765000Y-118745000D01*
X162560000Y-120650000D02*
X153670000Y-120650000D01*
X170815000Y-118745000D02*
X165100000Y-118745000D01*
X160805000Y-107315000D02*
X163830000Y-107315000D01*
X167640000Y-103505000D02*
X172720000Y-103505000D01*
X163830000Y-107315000D02*
X167640000Y-103505000D01*
X160805000Y-114245000D02*
X160805000Y-107315000D01*
X160805000Y-107315000D02*
X160805000Y-89685000D01*
X160805000Y-89685000D02*
X159385000Y-88265000D01*
X154305000Y-114245000D02*
X160655000Y-114245000D01*
X154305000Y-89535000D02*
X158115000Y-89535000D01*
X158115000Y-89535000D02*
X159385000Y-90805000D01*
X154305000Y-94535000D02*
X158195000Y-94535000D01*
X158195000Y-94535000D02*
X159385000Y-93345000D01*
X175260000Y-106045000D02*
X173990000Y-104775000D01*
X173990000Y-98425000D02*
X172720000Y-97155000D01*
X173990000Y-104775000D02*
X173990000Y-98425000D01*
X172720000Y-97155000D02*
X168275000Y-97155000D01*
X168275000Y-97155000D02*
X167005000Y-95885000D01*
X163830000Y-100330000D02*
X163830000Y-101600000D01*
X177800000Y-101600000D02*
X177800000Y-103505000D01*
X154305000Y-109855000D02*
X157480000Y-106680000D01*
X165735000Y-93345000D02*
X167005000Y-93345000D01*
X163830000Y-95250000D02*
X165735000Y-93345000D01*
X163830000Y-100330000D02*
X163830000Y-95250000D01*
X178435000Y-109855000D02*
X176530000Y-107950000D01*
X176530000Y-104775000D02*
X175260000Y-103505000D01*
X176530000Y-107950000D02*
X176530000Y-104775000D01*
X175260000Y-103505000D02*
X175260000Y-93345000D01*
X172720000Y-90805000D02*
X167005000Y-90805000D01*
X175260000Y-93345000D02*
X172720000Y-90805000D01*
X157480000Y-81915000D02*
X157480000Y-82550000D01*
X158750000Y-75565000D02*
X157480000Y-74295000D01*
X158750000Y-78105000D02*
X158750000Y-75565000D01*
X157480000Y-82550000D02*
X158750000Y-83820000D01*
X164465000Y-81915000D02*
X164465000Y-82550000D01*
X165735000Y-75565000D02*
X164465000Y-74295000D01*
X165735000Y-78105000D02*
X165735000Y-75565000D01*
X164465000Y-82550000D02*
X165735000Y-83820000D01*
X171450000Y-81915000D02*
X171450000Y-82550000D01*
X172720000Y-75565000D02*
X171450000Y-74295000D01*
X172720000Y-78105000D02*
X172720000Y-75565000D01*
X171450000Y-82550000D02*
X172720000Y-83820000D01*
X178435000Y-81915000D02*
X178435000Y-82550000D01*
X179705000Y-75565000D02*
X178435000Y-74295000D01*
X179705000Y-78105000D02*
X179705000Y-75565000D01*
X178435000Y-82550000D02*
X179705000Y-83820000D01*
X173355000Y-118745000D02*
X173355000Y-116840000D01*
X168275000Y-111760000D02*
X168275000Y-109855000D01*
X173355000Y-116840000D02*
X168275000Y-111760000D01*
X156210000Y-80645000D02*
X163195000Y-80645000D01*
X170180000Y-80645000D02*
X163195000Y-80645000D01*
X177165000Y-80645000D02*
X177165000Y-85725000D01*
X177165000Y-80645000D02*
X156210000Y-80645000D01*
X175895000Y-86995000D02*
X172085000Y-86995000D01*
D26*
G36*
X155074818Y-80418168D02*
X155074513Y-80767260D01*
X154634565Y-80798398D01*
X154366418Y-80909468D01*
X154329224Y-81124619D01*
X154940000Y-81735395D01*
X154954143Y-81721253D01*
X155133748Y-81900858D01*
X155119605Y-81915000D01*
X155730381Y-82525776D01*
X155945532Y-82488582D01*
X156088491Y-82060120D01*
X156068683Y-81780257D01*
X156344737Y-81780497D01*
X156344424Y-82139850D01*
X156516911Y-82557301D01*
X156772352Y-82813189D01*
X156777852Y-82840839D01*
X156942599Y-83087401D01*
X157714965Y-83859767D01*
X157714821Y-84024971D01*
X157872058Y-84405515D01*
X158162954Y-84696919D01*
X158543223Y-84854820D01*
X158954971Y-84855179D01*
X159335515Y-84697942D01*
X159626919Y-84407046D01*
X159784820Y-84026777D01*
X159785179Y-83615029D01*
X159627942Y-83234485D01*
X159337046Y-82943081D01*
X158956777Y-82785180D01*
X158789836Y-82785034D01*
X158710183Y-82705381D01*
X161314224Y-82705381D01*
X161351418Y-82920532D01*
X161779880Y-83063491D01*
X162230435Y-83031602D01*
X162498582Y-82920532D01*
X162535776Y-82705381D01*
X161925000Y-82094605D01*
X161314224Y-82705381D01*
X158710183Y-82705381D01*
X158477708Y-82472906D01*
X158615182Y-82141832D01*
X158615576Y-81690150D01*
X158497755Y-81405000D01*
X160898253Y-81405000D01*
X160776509Y-81769880D01*
X160808398Y-82220435D01*
X160919468Y-82488582D01*
X161134619Y-82525776D01*
X161745395Y-81915000D01*
X161731253Y-81900858D01*
X161910858Y-81721253D01*
X161925000Y-81735395D01*
X161939143Y-81721253D01*
X162118748Y-81900858D01*
X162104605Y-81915000D01*
X162715381Y-82525776D01*
X162930532Y-82488582D01*
X163073491Y-82060120D01*
X163053683Y-81780257D01*
X163329737Y-81780497D01*
X163329424Y-82139850D01*
X163501911Y-82557301D01*
X163757352Y-82813189D01*
X163762852Y-82840839D01*
X163927599Y-83087401D01*
X164699965Y-83859767D01*
X164699821Y-84024971D01*
X164857058Y-84405515D01*
X165147954Y-84696919D01*
X165528223Y-84854820D01*
X165939971Y-84855179D01*
X166320515Y-84697942D01*
X166611919Y-84407046D01*
X166769820Y-84026777D01*
X166770179Y-83615029D01*
X166612942Y-83234485D01*
X166322046Y-82943081D01*
X165941777Y-82785180D01*
X165774836Y-82785034D01*
X165695183Y-82705381D01*
X168299224Y-82705381D01*
X168336418Y-82920532D01*
X168764880Y-83063491D01*
X169215435Y-83031602D01*
X169483582Y-82920532D01*
X169520776Y-82705381D01*
X168910000Y-82094605D01*
X168299224Y-82705381D01*
X165695183Y-82705381D01*
X165462708Y-82472906D01*
X165600182Y-82141832D01*
X165600576Y-81690150D01*
X165482755Y-81405000D01*
X167883253Y-81405000D01*
X167761509Y-81769880D01*
X167793398Y-82220435D01*
X167904468Y-82488582D01*
X168119619Y-82525776D01*
X168730395Y-81915000D01*
X168716253Y-81900858D01*
X168895858Y-81721253D01*
X168910000Y-81735395D01*
X168924143Y-81721253D01*
X169103748Y-81900858D01*
X169089605Y-81915000D01*
X169700381Y-82525776D01*
X169915532Y-82488582D01*
X170058491Y-82060120D01*
X170038683Y-81780257D01*
X170314737Y-81780497D01*
X170314424Y-82139850D01*
X170486911Y-82557301D01*
X170742352Y-82813189D01*
X170747852Y-82840839D01*
X170912599Y-83087401D01*
X171684965Y-83859767D01*
X171684821Y-84024971D01*
X171842058Y-84405515D01*
X172132954Y-84696919D01*
X172513223Y-84854820D01*
X172924971Y-84855179D01*
X173305515Y-84697942D01*
X173596919Y-84407046D01*
X173754820Y-84026777D01*
X173755179Y-83615029D01*
X173597942Y-83234485D01*
X173307046Y-82943081D01*
X172926777Y-82785180D01*
X172759836Y-82785034D01*
X172447708Y-82472906D01*
X172585182Y-82141832D01*
X172585576Y-81690150D01*
X172467755Y-81405000D01*
X174868253Y-81405000D01*
X174746509Y-81769880D01*
X174778398Y-82220435D01*
X174889468Y-82488582D01*
X175104619Y-82525776D01*
X175715395Y-81915000D01*
X175701253Y-81900858D01*
X175880858Y-81721253D01*
X175895000Y-81735395D01*
X175909143Y-81721253D01*
X176088748Y-81900858D01*
X176074605Y-81915000D01*
X176088748Y-81929143D01*
X175909143Y-82108748D01*
X175895000Y-82094605D01*
X175284224Y-82705381D01*
X175321418Y-82920532D01*
X175749880Y-83063491D01*
X176200435Y-83031602D01*
X176405000Y-82946868D01*
X176405000Y-84879405D01*
X176203033Y-85081019D01*
X176029818Y-85498168D01*
X176029503Y-85859737D01*
X175670150Y-85859424D01*
X175252699Y-86031911D01*
X175049255Y-86235000D01*
X173539496Y-86235000D01*
X173471462Y-86070345D01*
X173012073Y-85610154D01*
X172411547Y-85360794D01*
X171761306Y-85360226D01*
X171160345Y-85608538D01*
X170700154Y-86067927D01*
X170450794Y-86668453D01*
X170450226Y-87318694D01*
X170527206Y-87505000D01*
X168217995Y-87505000D01*
X168047811Y-87250302D01*
X167582264Y-86939233D01*
X167033113Y-86830000D01*
X166976887Y-86830000D01*
X166427736Y-86939233D01*
X165962189Y-87250302D01*
X165651120Y-87715849D01*
X165541887Y-88265000D01*
X165651120Y-88814151D01*
X165962189Y-89279698D01*
X166344275Y-89535000D01*
X165962189Y-89790302D01*
X165651120Y-90255849D01*
X165541887Y-90805000D01*
X165651120Y-91354151D01*
X165962189Y-91819698D01*
X166344275Y-92075000D01*
X165962189Y-92330302D01*
X165792005Y-92585000D01*
X165735000Y-92585000D01*
X165444161Y-92642852D01*
X165197599Y-92807599D01*
X163292599Y-94712599D01*
X163127852Y-94959161D01*
X163070000Y-95250000D01*
X163070000Y-99626239D01*
X162953081Y-99742954D01*
X162795180Y-100123223D01*
X162794821Y-100534971D01*
X162952058Y-100915515D01*
X163001288Y-100964831D01*
X162953081Y-101012954D01*
X162795180Y-101393223D01*
X162794821Y-101804971D01*
X162952058Y-102185515D01*
X163242954Y-102476919D01*
X163623223Y-102634820D01*
X164034971Y-102635179D01*
X164415515Y-102477942D01*
X164706919Y-102187046D01*
X164864820Y-101806777D01*
X164865179Y-101395029D01*
X164707942Y-101014485D01*
X164658712Y-100965169D01*
X164706919Y-100917046D01*
X164864820Y-100536777D01*
X164865179Y-100125029D01*
X164707942Y-99744485D01*
X164590000Y-99626337D01*
X164590000Y-95564802D01*
X165895264Y-94259538D01*
X165962189Y-94359698D01*
X166344275Y-94615000D01*
X165962189Y-94870302D01*
X165651120Y-95335849D01*
X165541887Y-95885000D01*
X165651120Y-96434151D01*
X165962189Y-96899698D01*
X166427736Y-97210767D01*
X166976887Y-97320000D01*
X167033113Y-97320000D01*
X167310102Y-97264904D01*
X167737599Y-97692401D01*
X167984160Y-97857148D01*
X168275000Y-97915000D01*
X170630504Y-97915000D01*
X170698538Y-98079655D01*
X171157927Y-98539846D01*
X171758453Y-98789206D01*
X172408694Y-98789774D01*
X173009655Y-98541462D01*
X173020667Y-98530469D01*
X173230000Y-98739802D01*
X173230000Y-102078486D01*
X172720000Y-101977041D01*
X172146511Y-102091115D01*
X171660330Y-102415971D01*
X171440480Y-102745000D01*
X167640000Y-102745000D01*
X167349161Y-102802852D01*
X167102599Y-102967599D01*
X163515198Y-106555000D01*
X161565000Y-106555000D01*
X161565000Y-89685000D01*
X161507148Y-89394161D01*
X161507148Y-89394160D01*
X161342401Y-89147599D01*
X160783688Y-88588886D01*
X160848113Y-88265000D01*
X160738880Y-87715849D01*
X160427811Y-87250302D01*
X159962264Y-86939233D01*
X159413113Y-86830000D01*
X159356887Y-86830000D01*
X158807736Y-86939233D01*
X158342189Y-87250302D01*
X158031120Y-87715849D01*
X157921887Y-88265000D01*
X158023332Y-88775000D01*
X155502531Y-88775000D01*
X155490010Y-88744697D01*
X155097370Y-88351371D01*
X154584100Y-88138243D01*
X154028339Y-88137758D01*
X153514697Y-88349990D01*
X153121371Y-88742630D01*
X152908243Y-89255900D01*
X152907758Y-89811661D01*
X153119990Y-90325303D01*
X153512630Y-90718629D01*
X153656503Y-90778370D01*
X153573857Y-90812603D01*
X153504392Y-91054787D01*
X154305000Y-91855395D01*
X155105608Y-91054787D01*
X155036143Y-90812603D01*
X154947633Y-90781026D01*
X155095303Y-90720010D01*
X155488629Y-90327370D01*
X155502070Y-90295000D01*
X157800198Y-90295000D01*
X157986312Y-90481114D01*
X157921887Y-90805000D01*
X158031120Y-91354151D01*
X158342189Y-91819698D01*
X158724275Y-92075000D01*
X158342189Y-92330302D01*
X158031120Y-92795849D01*
X157921887Y-93345000D01*
X157986312Y-93668886D01*
X157880198Y-93775000D01*
X155502531Y-93775000D01*
X155490010Y-93744697D01*
X155097370Y-93351371D01*
X154953497Y-93291630D01*
X155036143Y-93257397D01*
X155105608Y-93015213D01*
X154305000Y-92214605D01*
X153504392Y-93015213D01*
X153573857Y-93257397D01*
X153662367Y-93288974D01*
X153514697Y-93349990D01*
X153121371Y-93742630D01*
X152908243Y-94255900D01*
X152907758Y-94811661D01*
X153119990Y-95325303D01*
X153512630Y-95718629D01*
X154025900Y-95931757D01*
X154581661Y-95932242D01*
X155095303Y-95720010D01*
X155488629Y-95327370D01*
X155502070Y-95295000D01*
X158092899Y-95295000D01*
X157993096Y-95535961D01*
X158115085Y-95758000D01*
X159258000Y-95758000D01*
X159258000Y-95738000D01*
X159512000Y-95738000D01*
X159512000Y-95758000D01*
X159532000Y-95758000D01*
X159532000Y-96012000D01*
X159512000Y-96012000D01*
X159512000Y-97155629D01*
X159734041Y-97276914D01*
X160045000Y-97129743D01*
X160045000Y-113047469D01*
X160014697Y-113059990D01*
X159621371Y-113452630D01*
X159607930Y-113485000D01*
X155502531Y-113485000D01*
X155490010Y-113454697D01*
X155097370Y-113061371D01*
X154584100Y-112848243D01*
X154028339Y-112847758D01*
X153514697Y-113059990D01*
X153121371Y-113452630D01*
X152908243Y-113965900D01*
X152907758Y-114521661D01*
X153119990Y-115035303D01*
X153512630Y-115428629D01*
X154025900Y-115641757D01*
X154581661Y-115642242D01*
X155095303Y-115430010D01*
X155488629Y-115037370D01*
X155502070Y-115005000D01*
X159607469Y-115005000D01*
X159619990Y-115035303D01*
X160012630Y-115428629D01*
X160525900Y-115641757D01*
X161081661Y-115642242D01*
X161595303Y-115430010D01*
X161988629Y-115037370D01*
X162201757Y-114524100D01*
X162202242Y-113968339D01*
X161990010Y-113454697D01*
X161597370Y-113061371D01*
X161565000Y-113047930D01*
X161565000Y-111007163D01*
X163492443Y-111007163D01*
X163591042Y-111273965D01*
X164200582Y-111500401D01*
X164850377Y-111476341D01*
X165338958Y-111273965D01*
X165437557Y-111007163D01*
X164465000Y-110034605D01*
X163492443Y-111007163D01*
X161565000Y-111007163D01*
X161565000Y-109590582D01*
X162819599Y-109590582D01*
X162843659Y-110240377D01*
X163046035Y-110728958D01*
X163312837Y-110827557D01*
X164285395Y-109855000D01*
X164644605Y-109855000D01*
X165617163Y-110827557D01*
X165883965Y-110728958D01*
X166110401Y-110119418D01*
X166086341Y-109469623D01*
X165883965Y-108981042D01*
X165617163Y-108882443D01*
X164644605Y-109855000D01*
X164285395Y-109855000D01*
X163312837Y-108882443D01*
X163046035Y-108981042D01*
X162819599Y-109590582D01*
X161565000Y-109590582D01*
X161565000Y-108702837D01*
X163492443Y-108702837D01*
X164465000Y-109675395D01*
X165437557Y-108702837D01*
X165338958Y-108436035D01*
X164729418Y-108209599D01*
X164079623Y-108233659D01*
X163591042Y-108436035D01*
X163492443Y-108702837D01*
X161565000Y-108702837D01*
X161565000Y-108075000D01*
X163830000Y-108075000D01*
X164120839Y-108017148D01*
X164367401Y-107852401D01*
X165815775Y-106404027D01*
X171265032Y-106404027D01*
X171513179Y-106933490D01*
X171945053Y-107327688D01*
X172360974Y-107499958D01*
X172593000Y-107378817D01*
X172593000Y-106172000D01*
X171385531Y-106172000D01*
X171265032Y-106404027D01*
X165815775Y-106404027D01*
X167954802Y-104265000D01*
X171440480Y-104265000D01*
X171660330Y-104594029D01*
X171931161Y-104774992D01*
X171513179Y-105156510D01*
X171265032Y-105685973D01*
X171385531Y-105918000D01*
X172593000Y-105918000D01*
X172593000Y-105898000D01*
X172847000Y-105898000D01*
X172847000Y-105918000D01*
X172867000Y-105918000D01*
X172867000Y-106172000D01*
X172847000Y-106172000D01*
X172847000Y-107378817D01*
X173079026Y-107499958D01*
X173494947Y-107327688D01*
X173926821Y-106933490D01*
X173984336Y-106810772D01*
X174200330Y-107134029D01*
X174686511Y-107458885D01*
X175260000Y-107572959D01*
X175770000Y-107471514D01*
X175770000Y-107950000D01*
X175827852Y-108240839D01*
X175992599Y-108487401D01*
X176869115Y-109363917D01*
X176800794Y-109528453D01*
X176800226Y-110178694D01*
X177048538Y-110779655D01*
X177507927Y-111239846D01*
X178108453Y-111489206D01*
X178758694Y-111489774D01*
X179359655Y-111241462D01*
X179819846Y-110782073D01*
X180069206Y-110181547D01*
X180069774Y-109531306D01*
X179821462Y-108930345D01*
X179362073Y-108470154D01*
X178761547Y-108220794D01*
X178111306Y-108220226D01*
X177944111Y-108289309D01*
X177290000Y-107635198D01*
X177290000Y-107471514D01*
X177800000Y-107572959D01*
X178373489Y-107458885D01*
X178859670Y-107134029D01*
X179079520Y-106805000D01*
X179705000Y-106805000D01*
X179995839Y-106747148D01*
X180242401Y-106582401D01*
X180990000Y-105834802D01*
X180990000Y-121290000D01*
X162943850Y-121290000D01*
X163097401Y-121187401D01*
X163805571Y-120479231D01*
X163982400Y-120515040D01*
X166217600Y-120515040D01*
X166452917Y-120470762D01*
X166669041Y-120331690D01*
X166814031Y-120119490D01*
X166865040Y-119867600D01*
X166865040Y-119505000D01*
X169359953Y-119505000D01*
X169428106Y-119669943D01*
X169887637Y-120130278D01*
X170488352Y-120379716D01*
X171138795Y-120380284D01*
X171739943Y-120131894D01*
X171806574Y-120065379D01*
X171890910Y-120196441D01*
X172103110Y-120341431D01*
X172355000Y-120392440D01*
X174355000Y-120392440D01*
X174590317Y-120348162D01*
X174806441Y-120209090D01*
X174951431Y-119996890D01*
X175002440Y-119745000D01*
X175002440Y-119035750D01*
X176697400Y-119035750D01*
X176697400Y-119993910D01*
X176794073Y-120227299D01*
X176972702Y-120405927D01*
X177206091Y-120502600D01*
X178164250Y-120502600D01*
X178323000Y-120343850D01*
X178323000Y-118877000D01*
X178577000Y-118877000D01*
X178577000Y-120343850D01*
X178735750Y-120502600D01*
X179693909Y-120502600D01*
X179927298Y-120405927D01*
X180105927Y-120227299D01*
X180202600Y-119993910D01*
X180202600Y-119035750D01*
X180043850Y-118877000D01*
X178577000Y-118877000D01*
X178323000Y-118877000D01*
X176856150Y-118877000D01*
X176697400Y-119035750D01*
X175002440Y-119035750D01*
X175002440Y-117745000D01*
X174958162Y-117509683D01*
X174955850Y-117506090D01*
X176697400Y-117506090D01*
X176697400Y-118464250D01*
X176856150Y-118623000D01*
X178323000Y-118623000D01*
X178323000Y-117156150D01*
X178577000Y-117156150D01*
X178577000Y-118623000D01*
X180043850Y-118623000D01*
X180202600Y-118464250D01*
X180202600Y-117506090D01*
X180105927Y-117272701D01*
X179927298Y-117094073D01*
X179693909Y-116997400D01*
X178735750Y-116997400D01*
X178577000Y-117156150D01*
X178323000Y-117156150D01*
X178164250Y-116997400D01*
X177206091Y-116997400D01*
X176972702Y-117094073D01*
X176794073Y-117272701D01*
X176697400Y-117506090D01*
X174955850Y-117506090D01*
X174819090Y-117293559D01*
X174606890Y-117148569D01*
X174355000Y-117097560D01*
X174115000Y-117097560D01*
X174115000Y-116840000D01*
X174057148Y-116549161D01*
X173892401Y-116302599D01*
X169035000Y-111445198D01*
X169035000Y-111309496D01*
X169199655Y-111241462D01*
X169659846Y-110782073D01*
X169909206Y-110181547D01*
X169909774Y-109531306D01*
X169661462Y-108930345D01*
X169202073Y-108470154D01*
X168601547Y-108220794D01*
X167951306Y-108220226D01*
X167350345Y-108468538D01*
X166890154Y-108927927D01*
X166640794Y-109528453D01*
X166640226Y-110178694D01*
X166888538Y-110779655D01*
X167347927Y-111239846D01*
X167515000Y-111309221D01*
X167515000Y-111760000D01*
X167572852Y-112050839D01*
X167737599Y-112297401D01*
X172537758Y-117097560D01*
X172355000Y-117097560D01*
X172119683Y-117141838D01*
X171903559Y-117280910D01*
X171806090Y-117423561D01*
X171742363Y-117359722D01*
X171141648Y-117110284D01*
X170491205Y-117109716D01*
X169890057Y-117358106D01*
X169429722Y-117817637D01*
X169360227Y-117985000D01*
X166865040Y-117985000D01*
X166865040Y-117632400D01*
X166820762Y-117397083D01*
X166681690Y-117180959D01*
X166469490Y-117035969D01*
X166217600Y-116984960D01*
X163982400Y-116984960D01*
X163747083Y-117029238D01*
X163530959Y-117168310D01*
X163385969Y-117380510D01*
X163334960Y-117632400D01*
X163334960Y-118800238D01*
X162245198Y-119890000D01*
X161558343Y-119890000D01*
X161605608Y-119725213D01*
X160805000Y-118924605D01*
X160004392Y-119725213D01*
X160051657Y-119890000D01*
X155058343Y-119890000D01*
X155105608Y-119725213D01*
X154305000Y-118924605D01*
X154290858Y-118938748D01*
X154111253Y-118759143D01*
X154125395Y-118745000D01*
X154484605Y-118745000D01*
X155285213Y-119545608D01*
X155527397Y-119476143D01*
X155714144Y-118952698D01*
X155693353Y-118537302D01*
X159395856Y-118537302D01*
X159423638Y-119092368D01*
X159582603Y-119476143D01*
X159824787Y-119545608D01*
X160625395Y-118745000D01*
X160984605Y-118745000D01*
X161785213Y-119545608D01*
X162027397Y-119476143D01*
X162214144Y-118952698D01*
X162186362Y-118397632D01*
X162027397Y-118013857D01*
X161785213Y-117944392D01*
X160984605Y-118745000D01*
X160625395Y-118745000D01*
X159824787Y-117944392D01*
X159582603Y-118013857D01*
X159395856Y-118537302D01*
X155693353Y-118537302D01*
X155686362Y-118397632D01*
X155527397Y-118013857D01*
X155285213Y-117944392D01*
X154484605Y-118745000D01*
X154125395Y-118745000D01*
X153324787Y-117944392D01*
X153082603Y-118013857D01*
X152895856Y-118537302D01*
X152909753Y-118814951D01*
X152525000Y-118430198D01*
X152525000Y-117764787D01*
X153504392Y-117764787D01*
X154305000Y-118565395D01*
X155105608Y-117764787D01*
X160004392Y-117764787D01*
X160805000Y-118565395D01*
X161605608Y-117764787D01*
X161536143Y-117522603D01*
X161012698Y-117335856D01*
X160457632Y-117363638D01*
X160073857Y-117522603D01*
X160004392Y-117764787D01*
X155105608Y-117764787D01*
X155036143Y-117522603D01*
X154512698Y-117335856D01*
X153957632Y-117363638D01*
X153573857Y-117522603D01*
X153504392Y-117764787D01*
X152525000Y-117764787D01*
X152525000Y-110178694D01*
X152670226Y-110178694D01*
X152918538Y-110779655D01*
X153377927Y-111239846D01*
X153978453Y-111489206D01*
X154628694Y-111489774D01*
X155229655Y-111241462D01*
X155689846Y-110782073D01*
X155939206Y-110181547D01*
X155939774Y-109531306D01*
X155870691Y-109364111D01*
X157519767Y-107715035D01*
X157684971Y-107715179D01*
X158065515Y-107557942D01*
X158356919Y-107267046D01*
X158514820Y-106886777D01*
X158515179Y-106475029D01*
X158357942Y-106094485D01*
X158067046Y-105803081D01*
X157686777Y-105645180D01*
X157275029Y-105644821D01*
X156894485Y-105802058D01*
X156603081Y-106092954D01*
X156445180Y-106473223D01*
X156445034Y-106640164D01*
X154796083Y-108289115D01*
X154631547Y-108220794D01*
X153981306Y-108220226D01*
X153380345Y-108468538D01*
X152920154Y-108927927D01*
X152670794Y-109528453D01*
X152670226Y-110178694D01*
X152525000Y-110178694D01*
X152525000Y-106404016D01*
X153585590Y-106404016D01*
X153641271Y-106634611D01*
X154124078Y-106802622D01*
X154634428Y-106773083D01*
X154968729Y-106634611D01*
X155024410Y-106404016D01*
X154305000Y-105684605D01*
X153585590Y-106404016D01*
X152525000Y-106404016D01*
X152525000Y-106359802D01*
X153040858Y-105843944D01*
X153175389Y-106168729D01*
X153405984Y-106224410D01*
X154125395Y-105505000D01*
X154111252Y-105490858D01*
X154290858Y-105311252D01*
X154305000Y-105325395D01*
X154319142Y-105311252D01*
X154498748Y-105490858D01*
X154484605Y-105505000D01*
X155204016Y-106224410D01*
X155434611Y-106168729D01*
X155602622Y-105685922D01*
X155573083Y-105175572D01*
X155434611Y-104841271D01*
X155204018Y-104785590D01*
X155305680Y-104683928D01*
X155406441Y-104619090D01*
X155551431Y-104406890D01*
X155602440Y-104155000D01*
X155602440Y-102855000D01*
X155558162Y-102619683D01*
X155419090Y-102403559D01*
X155206890Y-102258569D01*
X155065000Y-102229836D01*
X155065000Y-101606742D01*
X155190317Y-101583162D01*
X155406441Y-101444090D01*
X155551431Y-101231890D01*
X155602440Y-100980000D01*
X155602440Y-99680000D01*
X155558162Y-99444683D01*
X155419090Y-99228559D01*
X155206890Y-99083569D01*
X154955000Y-99032560D01*
X154792615Y-99032560D01*
X154968729Y-98959611D01*
X155024410Y-98729016D01*
X154305000Y-98009605D01*
X153585590Y-98729016D01*
X153641271Y-98959611D01*
X153850902Y-99032560D01*
X153655000Y-99032560D01*
X153419683Y-99076838D01*
X153203559Y-99215910D01*
X153058569Y-99428110D01*
X153007560Y-99680000D01*
X153007560Y-100980000D01*
X153051838Y-101215317D01*
X153190910Y-101431441D01*
X153403110Y-101576431D01*
X153545000Y-101605164D01*
X153545000Y-102228258D01*
X153419683Y-102251838D01*
X153203559Y-102390910D01*
X153058569Y-102603110D01*
X153007560Y-102855000D01*
X153007560Y-103727638D01*
X152525000Y-104210198D01*
X152525000Y-97649078D01*
X153007378Y-97649078D01*
X153036917Y-98159428D01*
X153175389Y-98493729D01*
X153405984Y-98549410D01*
X154125395Y-97830000D01*
X154484605Y-97830000D01*
X155204016Y-98549410D01*
X155434611Y-98493729D01*
X155602622Y-98010922D01*
X155573083Y-97500572D01*
X155434611Y-97166271D01*
X155204016Y-97110590D01*
X154484605Y-97830000D01*
X154125395Y-97830000D01*
X153405984Y-97110590D01*
X153175389Y-97166271D01*
X153007378Y-97649078D01*
X152525000Y-97649078D01*
X152525000Y-96930984D01*
X153585590Y-96930984D01*
X154305000Y-97650395D01*
X155024410Y-96930984D01*
X154968729Y-96700389D01*
X154485922Y-96532378D01*
X153975572Y-96561917D01*
X153641271Y-96700389D01*
X153585590Y-96930984D01*
X152525000Y-96930984D01*
X152525000Y-96234039D01*
X157993096Y-96234039D01*
X158153959Y-96622423D01*
X158529866Y-97037389D01*
X159035959Y-97276914D01*
X159258000Y-97155629D01*
X159258000Y-96012000D01*
X158115085Y-96012000D01*
X157993096Y-96234039D01*
X152525000Y-96234039D01*
X152525000Y-91827302D01*
X152895856Y-91827302D01*
X152923638Y-92382368D01*
X153082603Y-92766143D01*
X153324787Y-92835608D01*
X154125395Y-92035000D01*
X154484605Y-92035000D01*
X155285213Y-92835608D01*
X155527397Y-92766143D01*
X155714144Y-92242698D01*
X155686362Y-91687632D01*
X155527397Y-91303857D01*
X155285213Y-91234392D01*
X154484605Y-92035000D01*
X154125395Y-92035000D01*
X153324787Y-91234392D01*
X153082603Y-91303857D01*
X152895856Y-91827302D01*
X152525000Y-91827302D01*
X152525000Y-82705381D01*
X154329224Y-82705381D01*
X154366418Y-82920532D01*
X154794880Y-83063491D01*
X155245435Y-83031602D01*
X155513582Y-82920532D01*
X155550776Y-82705381D01*
X154940000Y-82094605D01*
X154329224Y-82705381D01*
X152525000Y-82705381D01*
X152525000Y-81769880D01*
X153791509Y-81769880D01*
X153823398Y-82220435D01*
X153934468Y-82488582D01*
X154149619Y-82525776D01*
X154760395Y-81915000D01*
X154149619Y-81304224D01*
X153934468Y-81341418D01*
X153791509Y-81769880D01*
X152525000Y-81769880D01*
X152525000Y-80324802D01*
X152714802Y-80135000D01*
X155192399Y-80135000D01*
X155074818Y-80418168D01*
X155074818Y-80418168D01*
G37*
X155074818Y-80418168D02*
X155074513Y-80767260D01*
X154634565Y-80798398D01*
X154366418Y-80909468D01*
X154329224Y-81124619D01*
X154940000Y-81735395D01*
X154954143Y-81721253D01*
X155133748Y-81900858D01*
X155119605Y-81915000D01*
X155730381Y-82525776D01*
X155945532Y-82488582D01*
X156088491Y-82060120D01*
X156068683Y-81780257D01*
X156344737Y-81780497D01*
X156344424Y-82139850D01*
X156516911Y-82557301D01*
X156772352Y-82813189D01*
X156777852Y-82840839D01*
X156942599Y-83087401D01*
X157714965Y-83859767D01*
X157714821Y-84024971D01*
X157872058Y-84405515D01*
X158162954Y-84696919D01*
X158543223Y-84854820D01*
X158954971Y-84855179D01*
X159335515Y-84697942D01*
X159626919Y-84407046D01*
X159784820Y-84026777D01*
X159785179Y-83615029D01*
X159627942Y-83234485D01*
X159337046Y-82943081D01*
X158956777Y-82785180D01*
X158789836Y-82785034D01*
X158710183Y-82705381D01*
X161314224Y-82705381D01*
X161351418Y-82920532D01*
X161779880Y-83063491D01*
X162230435Y-83031602D01*
X162498582Y-82920532D01*
X162535776Y-82705381D01*
X161925000Y-82094605D01*
X161314224Y-82705381D01*
X158710183Y-82705381D01*
X158477708Y-82472906D01*
X158615182Y-82141832D01*
X158615576Y-81690150D01*
X158497755Y-81405000D01*
X160898253Y-81405000D01*
X160776509Y-81769880D01*
X160808398Y-82220435D01*
X160919468Y-82488582D01*
X161134619Y-82525776D01*
X161745395Y-81915000D01*
X161731253Y-81900858D01*
X161910858Y-81721253D01*
X161925000Y-81735395D01*
X161939143Y-81721253D01*
X162118748Y-81900858D01*
X162104605Y-81915000D01*
X162715381Y-82525776D01*
X162930532Y-82488582D01*
X163073491Y-82060120D01*
X163053683Y-81780257D01*
X163329737Y-81780497D01*
X163329424Y-82139850D01*
X163501911Y-82557301D01*
X163757352Y-82813189D01*
X163762852Y-82840839D01*
X163927599Y-83087401D01*
X164699965Y-83859767D01*
X164699821Y-84024971D01*
X164857058Y-84405515D01*
X165147954Y-84696919D01*
X165528223Y-84854820D01*
X165939971Y-84855179D01*
X166320515Y-84697942D01*
X166611919Y-84407046D01*
X166769820Y-84026777D01*
X166770179Y-83615029D01*
X166612942Y-83234485D01*
X166322046Y-82943081D01*
X165941777Y-82785180D01*
X165774836Y-82785034D01*
X165695183Y-82705381D01*
X168299224Y-82705381D01*
X168336418Y-82920532D01*
X168764880Y-83063491D01*
X169215435Y-83031602D01*
X169483582Y-82920532D01*
X169520776Y-82705381D01*
X168910000Y-82094605D01*
X168299224Y-82705381D01*
X165695183Y-82705381D01*
X165462708Y-82472906D01*
X165600182Y-82141832D01*
X165600576Y-81690150D01*
X165482755Y-81405000D01*
X167883253Y-81405000D01*
X167761509Y-81769880D01*
X167793398Y-82220435D01*
X167904468Y-82488582D01*
X168119619Y-82525776D01*
X168730395Y-81915000D01*
X168716253Y-81900858D01*
X168895858Y-81721253D01*
X168910000Y-81735395D01*
X168924143Y-81721253D01*
X169103748Y-81900858D01*
X169089605Y-81915000D01*
X169700381Y-82525776D01*
X169915532Y-82488582D01*
X170058491Y-82060120D01*
X170038683Y-81780257D01*
X170314737Y-81780497D01*
X170314424Y-82139850D01*
X170486911Y-82557301D01*
X170742352Y-82813189D01*
X170747852Y-82840839D01*
X170912599Y-83087401D01*
X171684965Y-83859767D01*
X171684821Y-84024971D01*
X171842058Y-84405515D01*
X172132954Y-84696919D01*
X172513223Y-84854820D01*
X172924971Y-84855179D01*
X173305515Y-84697942D01*
X173596919Y-84407046D01*
X173754820Y-84026777D01*
X173755179Y-83615029D01*
X173597942Y-83234485D01*
X173307046Y-82943081D01*
X172926777Y-82785180D01*
X172759836Y-82785034D01*
X172447708Y-82472906D01*
X172585182Y-82141832D01*
X172585576Y-81690150D01*
X172467755Y-81405000D01*
X174868253Y-81405000D01*
X174746509Y-81769880D01*
X174778398Y-82220435D01*
X174889468Y-82488582D01*
X175104619Y-82525776D01*
X175715395Y-81915000D01*
X175701253Y-81900858D01*
X175880858Y-81721253D01*
X175895000Y-81735395D01*
X175909143Y-81721253D01*
X176088748Y-81900858D01*
X176074605Y-81915000D01*
X176088748Y-81929143D01*
X175909143Y-82108748D01*
X175895000Y-82094605D01*
X175284224Y-82705381D01*
X175321418Y-82920532D01*
X175749880Y-83063491D01*
X176200435Y-83031602D01*
X176405000Y-82946868D01*
X176405000Y-84879405D01*
X176203033Y-85081019D01*
X176029818Y-85498168D01*
X176029503Y-85859737D01*
X175670150Y-85859424D01*
X175252699Y-86031911D01*
X175049255Y-86235000D01*
X173539496Y-86235000D01*
X173471462Y-86070345D01*
X173012073Y-85610154D01*
X172411547Y-85360794D01*
X171761306Y-85360226D01*
X171160345Y-85608538D01*
X170700154Y-86067927D01*
X170450794Y-86668453D01*
X170450226Y-87318694D01*
X170527206Y-87505000D01*
X168217995Y-87505000D01*
X168047811Y-87250302D01*
X167582264Y-86939233D01*
X167033113Y-86830000D01*
X166976887Y-86830000D01*
X166427736Y-86939233D01*
X165962189Y-87250302D01*
X165651120Y-87715849D01*
X165541887Y-88265000D01*
X165651120Y-88814151D01*
X165962189Y-89279698D01*
X166344275Y-89535000D01*
X165962189Y-89790302D01*
X165651120Y-90255849D01*
X165541887Y-90805000D01*
X165651120Y-91354151D01*
X165962189Y-91819698D01*
X166344275Y-92075000D01*
X165962189Y-92330302D01*
X165792005Y-92585000D01*
X165735000Y-92585000D01*
X165444161Y-92642852D01*
X165197599Y-92807599D01*
X163292599Y-94712599D01*
X163127852Y-94959161D01*
X163070000Y-95250000D01*
X163070000Y-99626239D01*
X162953081Y-99742954D01*
X162795180Y-100123223D01*
X162794821Y-100534971D01*
X162952058Y-100915515D01*
X163001288Y-100964831D01*
X162953081Y-101012954D01*
X162795180Y-101393223D01*
X162794821Y-101804971D01*
X162952058Y-102185515D01*
X163242954Y-102476919D01*
X163623223Y-102634820D01*
X164034971Y-102635179D01*
X164415515Y-102477942D01*
X164706919Y-102187046D01*
X164864820Y-101806777D01*
X164865179Y-101395029D01*
X164707942Y-101014485D01*
X164658712Y-100965169D01*
X164706919Y-100917046D01*
X164864820Y-100536777D01*
X164865179Y-100125029D01*
X164707942Y-99744485D01*
X164590000Y-99626337D01*
X164590000Y-95564802D01*
X165895264Y-94259538D01*
X165962189Y-94359698D01*
X166344275Y-94615000D01*
X165962189Y-94870302D01*
X165651120Y-95335849D01*
X165541887Y-95885000D01*
X165651120Y-96434151D01*
X165962189Y-96899698D01*
X166427736Y-97210767D01*
X166976887Y-97320000D01*
X167033113Y-97320000D01*
X167310102Y-97264904D01*
X167737599Y-97692401D01*
X167984160Y-97857148D01*
X168275000Y-97915000D01*
X170630504Y-97915000D01*
X170698538Y-98079655D01*
X171157927Y-98539846D01*
X171758453Y-98789206D01*
X172408694Y-98789774D01*
X173009655Y-98541462D01*
X173020667Y-98530469D01*
X173230000Y-98739802D01*
X173230000Y-102078486D01*
X172720000Y-101977041D01*
X172146511Y-102091115D01*
X171660330Y-102415971D01*
X171440480Y-102745000D01*
X167640000Y-102745000D01*
X167349161Y-102802852D01*
X167102599Y-102967599D01*
X163515198Y-106555000D01*
X161565000Y-106555000D01*
X161565000Y-89685000D01*
X161507148Y-89394161D01*
X161507148Y-89394160D01*
X161342401Y-89147599D01*
X160783688Y-88588886D01*
X160848113Y-88265000D01*
X160738880Y-87715849D01*
X160427811Y-87250302D01*
X159962264Y-86939233D01*
X159413113Y-86830000D01*
X159356887Y-86830000D01*
X158807736Y-86939233D01*
X158342189Y-87250302D01*
X158031120Y-87715849D01*
X157921887Y-88265000D01*
X158023332Y-88775000D01*
X155502531Y-88775000D01*
X155490010Y-88744697D01*
X155097370Y-88351371D01*
X154584100Y-88138243D01*
X154028339Y-88137758D01*
X153514697Y-88349990D01*
X153121371Y-88742630D01*
X152908243Y-89255900D01*
X152907758Y-89811661D01*
X153119990Y-90325303D01*
X153512630Y-90718629D01*
X153656503Y-90778370D01*
X153573857Y-90812603D01*
X153504392Y-91054787D01*
X154305000Y-91855395D01*
X155105608Y-91054787D01*
X155036143Y-90812603D01*
X154947633Y-90781026D01*
X155095303Y-90720010D01*
X155488629Y-90327370D01*
X155502070Y-90295000D01*
X157800198Y-90295000D01*
X157986312Y-90481114D01*
X157921887Y-90805000D01*
X158031120Y-91354151D01*
X158342189Y-91819698D01*
X158724275Y-92075000D01*
X158342189Y-92330302D01*
X158031120Y-92795849D01*
X157921887Y-93345000D01*
X157986312Y-93668886D01*
X157880198Y-93775000D01*
X155502531Y-93775000D01*
X155490010Y-93744697D01*
X155097370Y-93351371D01*
X154953497Y-93291630D01*
X155036143Y-93257397D01*
X155105608Y-93015213D01*
X154305000Y-92214605D01*
X153504392Y-93015213D01*
X153573857Y-93257397D01*
X153662367Y-93288974D01*
X153514697Y-93349990D01*
X153121371Y-93742630D01*
X152908243Y-94255900D01*
X152907758Y-94811661D01*
X153119990Y-95325303D01*
X153512630Y-95718629D01*
X154025900Y-95931757D01*
X154581661Y-95932242D01*
X155095303Y-95720010D01*
X155488629Y-95327370D01*
X155502070Y-95295000D01*
X158092899Y-95295000D01*
X157993096Y-95535961D01*
X158115085Y-95758000D01*
X159258000Y-95758000D01*
X159258000Y-95738000D01*
X159512000Y-95738000D01*
X159512000Y-95758000D01*
X159532000Y-95758000D01*
X159532000Y-96012000D01*
X159512000Y-96012000D01*
X159512000Y-97155629D01*
X159734041Y-97276914D01*
X160045000Y-97129743D01*
X160045000Y-113047469D01*
X160014697Y-113059990D01*
X159621371Y-113452630D01*
X159607930Y-113485000D01*
X155502531Y-113485000D01*
X155490010Y-113454697D01*
X155097370Y-113061371D01*
X154584100Y-112848243D01*
X154028339Y-112847758D01*
X153514697Y-113059990D01*
X153121371Y-113452630D01*
X152908243Y-113965900D01*
X152907758Y-114521661D01*
X153119990Y-115035303D01*
X153512630Y-115428629D01*
X154025900Y-115641757D01*
X154581661Y-115642242D01*
X155095303Y-115430010D01*
X155488629Y-115037370D01*
X155502070Y-115005000D01*
X159607469Y-115005000D01*
X159619990Y-115035303D01*
X160012630Y-115428629D01*
X160525900Y-115641757D01*
X161081661Y-115642242D01*
X161595303Y-115430010D01*
X161988629Y-115037370D01*
X162201757Y-114524100D01*
X162202242Y-113968339D01*
X161990010Y-113454697D01*
X161597370Y-113061371D01*
X161565000Y-113047930D01*
X161565000Y-111007163D01*
X163492443Y-111007163D01*
X163591042Y-111273965D01*
X164200582Y-111500401D01*
X164850377Y-111476341D01*
X165338958Y-111273965D01*
X165437557Y-111007163D01*
X164465000Y-110034605D01*
X163492443Y-111007163D01*
X161565000Y-111007163D01*
X161565000Y-109590582D01*
X162819599Y-109590582D01*
X162843659Y-110240377D01*
X163046035Y-110728958D01*
X163312837Y-110827557D01*
X164285395Y-109855000D01*
X164644605Y-109855000D01*
X165617163Y-110827557D01*
X165883965Y-110728958D01*
X166110401Y-110119418D01*
X166086341Y-109469623D01*
X165883965Y-108981042D01*
X165617163Y-108882443D01*
X164644605Y-109855000D01*
X164285395Y-109855000D01*
X163312837Y-108882443D01*
X163046035Y-108981042D01*
X162819599Y-109590582D01*
X161565000Y-109590582D01*
X161565000Y-108702837D01*
X163492443Y-108702837D01*
X164465000Y-109675395D01*
X165437557Y-108702837D01*
X165338958Y-108436035D01*
X164729418Y-108209599D01*
X164079623Y-108233659D01*
X163591042Y-108436035D01*
X163492443Y-108702837D01*
X161565000Y-108702837D01*
X161565000Y-108075000D01*
X163830000Y-108075000D01*
X164120839Y-108017148D01*
X164367401Y-107852401D01*
X165815775Y-106404027D01*
X171265032Y-106404027D01*
X171513179Y-106933490D01*
X171945053Y-107327688D01*
X172360974Y-107499958D01*
X172593000Y-107378817D01*
X172593000Y-106172000D01*
X171385531Y-106172000D01*
X171265032Y-106404027D01*
X165815775Y-106404027D01*
X167954802Y-104265000D01*
X171440480Y-104265000D01*
X171660330Y-104594029D01*
X171931161Y-104774992D01*
X171513179Y-105156510D01*
X171265032Y-105685973D01*
X171385531Y-105918000D01*
X172593000Y-105918000D01*
X172593000Y-105898000D01*
X172847000Y-105898000D01*
X172847000Y-105918000D01*
X172867000Y-105918000D01*
X172867000Y-106172000D01*
X172847000Y-106172000D01*
X172847000Y-107378817D01*
X173079026Y-107499958D01*
X173494947Y-107327688D01*
X173926821Y-106933490D01*
X173984336Y-106810772D01*
X174200330Y-107134029D01*
X174686511Y-107458885D01*
X175260000Y-107572959D01*
X175770000Y-107471514D01*
X175770000Y-107950000D01*
X175827852Y-108240839D01*
X175992599Y-108487401D01*
X176869115Y-109363917D01*
X176800794Y-109528453D01*
X176800226Y-110178694D01*
X177048538Y-110779655D01*
X177507927Y-111239846D01*
X178108453Y-111489206D01*
X178758694Y-111489774D01*
X179359655Y-111241462D01*
X179819846Y-110782073D01*
X180069206Y-110181547D01*
X180069774Y-109531306D01*
X179821462Y-108930345D01*
X179362073Y-108470154D01*
X178761547Y-108220794D01*
X178111306Y-108220226D01*
X177944111Y-108289309D01*
X177290000Y-107635198D01*
X177290000Y-107471514D01*
X177800000Y-107572959D01*
X178373489Y-107458885D01*
X178859670Y-107134029D01*
X179079520Y-106805000D01*
X179705000Y-106805000D01*
X179995839Y-106747148D01*
X180242401Y-106582401D01*
X180990000Y-105834802D01*
X180990000Y-121290000D01*
X162943850Y-121290000D01*
X163097401Y-121187401D01*
X163805571Y-120479231D01*
X163982400Y-120515040D01*
X166217600Y-120515040D01*
X166452917Y-120470762D01*
X166669041Y-120331690D01*
X166814031Y-120119490D01*
X166865040Y-119867600D01*
X166865040Y-119505000D01*
X169359953Y-119505000D01*
X169428106Y-119669943D01*
X169887637Y-120130278D01*
X170488352Y-120379716D01*
X171138795Y-120380284D01*
X171739943Y-120131894D01*
X171806574Y-120065379D01*
X171890910Y-120196441D01*
X172103110Y-120341431D01*
X172355000Y-120392440D01*
X174355000Y-120392440D01*
X174590317Y-120348162D01*
X174806441Y-120209090D01*
X174951431Y-119996890D01*
X175002440Y-119745000D01*
X175002440Y-119035750D01*
X176697400Y-119035750D01*
X176697400Y-119993910D01*
X176794073Y-120227299D01*
X176972702Y-120405927D01*
X177206091Y-120502600D01*
X178164250Y-120502600D01*
X178323000Y-120343850D01*
X178323000Y-118877000D01*
X178577000Y-118877000D01*
X178577000Y-120343850D01*
X178735750Y-120502600D01*
X179693909Y-120502600D01*
X179927298Y-120405927D01*
X180105927Y-120227299D01*
X180202600Y-119993910D01*
X180202600Y-119035750D01*
X180043850Y-118877000D01*
X178577000Y-118877000D01*
X178323000Y-118877000D01*
X176856150Y-118877000D01*
X176697400Y-119035750D01*
X175002440Y-119035750D01*
X175002440Y-117745000D01*
X174958162Y-117509683D01*
X174955850Y-117506090D01*
X176697400Y-117506090D01*
X176697400Y-118464250D01*
X176856150Y-118623000D01*
X178323000Y-118623000D01*
X178323000Y-117156150D01*
X178577000Y-117156150D01*
X178577000Y-118623000D01*
X180043850Y-118623000D01*
X180202600Y-118464250D01*
X180202600Y-117506090D01*
X180105927Y-117272701D01*
X179927298Y-117094073D01*
X179693909Y-116997400D01*
X178735750Y-116997400D01*
X178577000Y-117156150D01*
X178323000Y-117156150D01*
X178164250Y-116997400D01*
X177206091Y-116997400D01*
X176972702Y-117094073D01*
X176794073Y-117272701D01*
X176697400Y-117506090D01*
X174955850Y-117506090D01*
X174819090Y-117293559D01*
X174606890Y-117148569D01*
X174355000Y-117097560D01*
X174115000Y-117097560D01*
X174115000Y-116840000D01*
X174057148Y-116549161D01*
X173892401Y-116302599D01*
X169035000Y-111445198D01*
X169035000Y-111309496D01*
X169199655Y-111241462D01*
X169659846Y-110782073D01*
X169909206Y-110181547D01*
X169909774Y-109531306D01*
X169661462Y-108930345D01*
X169202073Y-108470154D01*
X168601547Y-108220794D01*
X167951306Y-108220226D01*
X167350345Y-108468538D01*
X166890154Y-108927927D01*
X166640794Y-109528453D01*
X166640226Y-110178694D01*
X166888538Y-110779655D01*
X167347927Y-111239846D01*
X167515000Y-111309221D01*
X167515000Y-111760000D01*
X167572852Y-112050839D01*
X167737599Y-112297401D01*
X172537758Y-117097560D01*
X172355000Y-117097560D01*
X172119683Y-117141838D01*
X171903559Y-117280910D01*
X171806090Y-117423561D01*
X171742363Y-117359722D01*
X171141648Y-117110284D01*
X170491205Y-117109716D01*
X169890057Y-117358106D01*
X169429722Y-117817637D01*
X169360227Y-117985000D01*
X166865040Y-117985000D01*
X166865040Y-117632400D01*
X166820762Y-117397083D01*
X166681690Y-117180959D01*
X166469490Y-117035969D01*
X166217600Y-116984960D01*
X163982400Y-116984960D01*
X163747083Y-117029238D01*
X163530959Y-117168310D01*
X163385969Y-117380510D01*
X163334960Y-117632400D01*
X163334960Y-118800238D01*
X162245198Y-119890000D01*
X161558343Y-119890000D01*
X161605608Y-119725213D01*
X160805000Y-118924605D01*
X160004392Y-119725213D01*
X160051657Y-119890000D01*
X155058343Y-119890000D01*
X155105608Y-119725213D01*
X154305000Y-118924605D01*
X154290858Y-118938748D01*
X154111253Y-118759143D01*
X154125395Y-118745000D01*
X154484605Y-118745000D01*
X155285213Y-119545608D01*
X155527397Y-119476143D01*
X155714144Y-118952698D01*
X155693353Y-118537302D01*
X159395856Y-118537302D01*
X159423638Y-119092368D01*
X159582603Y-119476143D01*
X159824787Y-119545608D01*
X160625395Y-118745000D01*
X160984605Y-118745000D01*
X161785213Y-119545608D01*
X162027397Y-119476143D01*
X162214144Y-118952698D01*
X162186362Y-118397632D01*
X162027397Y-118013857D01*
X161785213Y-117944392D01*
X160984605Y-118745000D01*
X160625395Y-118745000D01*
X159824787Y-117944392D01*
X159582603Y-118013857D01*
X159395856Y-118537302D01*
X155693353Y-118537302D01*
X155686362Y-118397632D01*
X155527397Y-118013857D01*
X155285213Y-117944392D01*
X154484605Y-118745000D01*
X154125395Y-118745000D01*
X153324787Y-117944392D01*
X153082603Y-118013857D01*
X152895856Y-118537302D01*
X152909753Y-118814951D01*
X152525000Y-118430198D01*
X152525000Y-117764787D01*
X153504392Y-117764787D01*
X154305000Y-118565395D01*
X155105608Y-117764787D01*
X160004392Y-117764787D01*
X160805000Y-118565395D01*
X161605608Y-117764787D01*
X161536143Y-117522603D01*
X161012698Y-117335856D01*
X160457632Y-117363638D01*
X160073857Y-117522603D01*
X160004392Y-117764787D01*
X155105608Y-117764787D01*
X155036143Y-117522603D01*
X154512698Y-117335856D01*
X153957632Y-117363638D01*
X153573857Y-117522603D01*
X153504392Y-117764787D01*
X152525000Y-117764787D01*
X152525000Y-110178694D01*
X152670226Y-110178694D01*
X152918538Y-110779655D01*
X153377927Y-111239846D01*
X153978453Y-111489206D01*
X154628694Y-111489774D01*
X155229655Y-111241462D01*
X155689846Y-110782073D01*
X155939206Y-110181547D01*
X155939774Y-109531306D01*
X155870691Y-109364111D01*
X157519767Y-107715035D01*
X157684971Y-107715179D01*
X158065515Y-107557942D01*
X158356919Y-107267046D01*
X158514820Y-106886777D01*
X158515179Y-106475029D01*
X158357942Y-106094485D01*
X158067046Y-105803081D01*
X157686777Y-105645180D01*
X157275029Y-105644821D01*
X156894485Y-105802058D01*
X156603081Y-106092954D01*
X156445180Y-106473223D01*
X156445034Y-106640164D01*
X154796083Y-108289115D01*
X154631547Y-108220794D01*
X153981306Y-108220226D01*
X153380345Y-108468538D01*
X152920154Y-108927927D01*
X152670794Y-109528453D01*
X152670226Y-110178694D01*
X152525000Y-110178694D01*
X152525000Y-106404016D01*
X153585590Y-106404016D01*
X153641271Y-106634611D01*
X154124078Y-106802622D01*
X154634428Y-106773083D01*
X154968729Y-106634611D01*
X155024410Y-106404016D01*
X154305000Y-105684605D01*
X153585590Y-106404016D01*
X152525000Y-106404016D01*
X152525000Y-106359802D01*
X153040858Y-105843944D01*
X153175389Y-106168729D01*
X153405984Y-106224410D01*
X154125395Y-105505000D01*
X154111252Y-105490858D01*
X154290858Y-105311252D01*
X154305000Y-105325395D01*
X154319142Y-105311252D01*
X154498748Y-105490858D01*
X154484605Y-105505000D01*
X155204016Y-106224410D01*
X155434611Y-106168729D01*
X155602622Y-105685922D01*
X155573083Y-105175572D01*
X155434611Y-104841271D01*
X155204018Y-104785590D01*
X155305680Y-104683928D01*
X155406441Y-104619090D01*
X155551431Y-104406890D01*
X155602440Y-104155000D01*
X155602440Y-102855000D01*
X155558162Y-102619683D01*
X155419090Y-102403559D01*
X155206890Y-102258569D01*
X155065000Y-102229836D01*
X155065000Y-101606742D01*
X155190317Y-101583162D01*
X155406441Y-101444090D01*
X155551431Y-101231890D01*
X155602440Y-100980000D01*
X155602440Y-99680000D01*
X155558162Y-99444683D01*
X155419090Y-99228559D01*
X155206890Y-99083569D01*
X154955000Y-99032560D01*
X154792615Y-99032560D01*
X154968729Y-98959611D01*
X155024410Y-98729016D01*
X154305000Y-98009605D01*
X153585590Y-98729016D01*
X153641271Y-98959611D01*
X153850902Y-99032560D01*
X153655000Y-99032560D01*
X153419683Y-99076838D01*
X153203559Y-99215910D01*
X153058569Y-99428110D01*
X153007560Y-99680000D01*
X153007560Y-100980000D01*
X153051838Y-101215317D01*
X153190910Y-101431441D01*
X153403110Y-101576431D01*
X153545000Y-101605164D01*
X153545000Y-102228258D01*
X153419683Y-102251838D01*
X153203559Y-102390910D01*
X153058569Y-102603110D01*
X153007560Y-102855000D01*
X153007560Y-103727638D01*
X152525000Y-104210198D01*
X152525000Y-97649078D01*
X153007378Y-97649078D01*
X153036917Y-98159428D01*
X153175389Y-98493729D01*
X153405984Y-98549410D01*
X154125395Y-97830000D01*
X154484605Y-97830000D01*
X155204016Y-98549410D01*
X155434611Y-98493729D01*
X155602622Y-98010922D01*
X155573083Y-97500572D01*
X155434611Y-97166271D01*
X155204016Y-97110590D01*
X154484605Y-97830000D01*
X154125395Y-97830000D01*
X153405984Y-97110590D01*
X153175389Y-97166271D01*
X153007378Y-97649078D01*
X152525000Y-97649078D01*
X152525000Y-96930984D01*
X153585590Y-96930984D01*
X154305000Y-97650395D01*
X155024410Y-96930984D01*
X154968729Y-96700389D01*
X154485922Y-96532378D01*
X153975572Y-96561917D01*
X153641271Y-96700389D01*
X153585590Y-96930984D01*
X152525000Y-96930984D01*
X152525000Y-96234039D01*
X157993096Y-96234039D01*
X158153959Y-96622423D01*
X158529866Y-97037389D01*
X159035959Y-97276914D01*
X159258000Y-97155629D01*
X159258000Y-96012000D01*
X158115085Y-96012000D01*
X157993096Y-96234039D01*
X152525000Y-96234039D01*
X152525000Y-91827302D01*
X152895856Y-91827302D01*
X152923638Y-92382368D01*
X153082603Y-92766143D01*
X153324787Y-92835608D01*
X154125395Y-92035000D01*
X154484605Y-92035000D01*
X155285213Y-92835608D01*
X155527397Y-92766143D01*
X155714144Y-92242698D01*
X155686362Y-91687632D01*
X155527397Y-91303857D01*
X155285213Y-91234392D01*
X154484605Y-92035000D01*
X154125395Y-92035000D01*
X153324787Y-91234392D01*
X153082603Y-91303857D01*
X152895856Y-91827302D01*
X152525000Y-91827302D01*
X152525000Y-82705381D01*
X154329224Y-82705381D01*
X154366418Y-82920532D01*
X154794880Y-83063491D01*
X155245435Y-83031602D01*
X155513582Y-82920532D01*
X155550776Y-82705381D01*
X154940000Y-82094605D01*
X154329224Y-82705381D01*
X152525000Y-82705381D01*
X152525000Y-81769880D01*
X153791509Y-81769880D01*
X153823398Y-82220435D01*
X153934468Y-82488582D01*
X154149619Y-82525776D01*
X154760395Y-81915000D01*
X154149619Y-81304224D01*
X153934468Y-81341418D01*
X153791509Y-81769880D01*
X152525000Y-81769880D01*
X152525000Y-80324802D01*
X152714802Y-80135000D01*
X155192399Y-80135000D01*
X155074818Y-80418168D01*
M02*
