G04 #@! TF.FileFunction,Copper,L2,Bot,Signal*
%FSLAX46Y46*%
G04 Gerber Fmt 4.6, Leading zero omitted, Abs format (unit mm)*
G04 Created by KiCad (PCBNEW 4.0.2-stable) date 20/06/2016 19:56:51*
%MOMM*%
G01*
G04 APERTURE LIST*
%ADD10C,0.100000*%
%ADD11C,1.000760*%
%ADD12R,1.300000X1.300000*%
%ADD13C,1.300000*%
%ADD14O,1.600000X1.600000*%
%ADD15R,1.900000X2.000000*%
%ADD16C,1.900000*%
%ADD17R,2.000000X2.000000*%
%ADD18C,2.000000*%
%ADD19C,1.998980*%
%ADD20R,1.727200X1.727200*%
%ADD21O,1.727200X1.727200*%
%ADD22C,1.524000*%
%ADD23R,2.235200X2.235200*%
%ADD24C,1.200000*%
%ADD25C,0.250000*%
%ADD26C,0.254000*%
G04 APERTURE END LIST*
D10*
D11*
X175895000Y-86995000D03*
X177165000Y-85725000D03*
X177165000Y-88265000D03*
X177165000Y-80645000D03*
X178435000Y-81915000D03*
X175895000Y-81915000D03*
X170180000Y-80645000D03*
X171450000Y-81915000D03*
X168910000Y-81915000D03*
X163195000Y-80645000D03*
X164465000Y-81915000D03*
X161925000Y-81915000D03*
X156210000Y-80645000D03*
X157480000Y-81915000D03*
X154940000Y-81915000D03*
D12*
X154305000Y-100330000D03*
D13*
X154305000Y-97830000D03*
D12*
X154305000Y-103505000D03*
D13*
X154305000Y-105505000D03*
D14*
X159385000Y-88265000D03*
X159385000Y-90805000D03*
X159385000Y-93345000D03*
X159385000Y-95885000D03*
X167005000Y-95885000D03*
X167005000Y-93345000D03*
X167005000Y-90805000D03*
X167005000Y-88265000D03*
D15*
X157480000Y-74295000D03*
D16*
X154940000Y-74295000D03*
D15*
X164465000Y-74295000D03*
D16*
X161925000Y-74295000D03*
D15*
X171450000Y-74295000D03*
D16*
X168910000Y-74295000D03*
D15*
X178435000Y-74295000D03*
D16*
X175895000Y-74295000D03*
D17*
X173355000Y-118745000D03*
D18*
X170815000Y-118745000D03*
D19*
X172085000Y-86995000D03*
X172085000Y-97155000D03*
X164465000Y-109855000D03*
X154305000Y-109855000D03*
X168275000Y-109855000D03*
X178435000Y-109855000D03*
D20*
X177800000Y-103505000D03*
D21*
X177800000Y-106045000D03*
X175260000Y-103505000D03*
X175260000Y-106045000D03*
X172720000Y-103505000D03*
X172720000Y-106045000D03*
D22*
X160805000Y-118745000D03*
X160805000Y-114245000D03*
X154305000Y-118745000D03*
X154305000Y-114245000D03*
X154305000Y-94535000D03*
X154305000Y-92035000D03*
X154305000Y-89535000D03*
D23*
X165100000Y-118750000D03*
X178450000Y-118750000D03*
D24*
X177800000Y-101600000D03*
X163830000Y-101600000D03*
X163830000Y-99695000D03*
X157480000Y-106680000D03*
X158750000Y-78105000D03*
X158750000Y-83820000D03*
X165735000Y-78105000D03*
X165735000Y-83820000D03*
X172720000Y-78105000D03*
X172720000Y-83820000D03*
X179705000Y-78105000D03*
X179705000Y-83820000D03*
D25*
X152400000Y-79375000D02*
X151765000Y-80010000D01*
X180721000Y-87249000D02*
X180721000Y-105029000D01*
X179705000Y-106045000D02*
X177800000Y-106045000D01*
X180721000Y-105029000D02*
X179705000Y-106045000D01*
X170815000Y-118745000D02*
X170815000Y-119380000D01*
X177165000Y-88265000D02*
X173355000Y-88265000D01*
X170815000Y-88265000D02*
X167005000Y-88265000D01*
X171450000Y-88900000D02*
X170815000Y-88265000D01*
X172720000Y-88900000D02*
X171450000Y-88900000D01*
X173355000Y-88265000D02*
X172720000Y-88900000D01*
X175895000Y-79375000D02*
X179705000Y-79375000D01*
X179705000Y-88265000D02*
X177165000Y-88265000D01*
X180721000Y-87249000D02*
X179705000Y-88265000D01*
X180721000Y-80391000D02*
X180721000Y-87249000D01*
X179705000Y-79375000D02*
X180721000Y-80391000D01*
X154940000Y-79375000D02*
X154940000Y-74295000D01*
X161925000Y-79375000D02*
X161925000Y-74295000D01*
X168910000Y-79375000D02*
X168910000Y-74295000D01*
X151765000Y-106045000D02*
X151765000Y-80010000D01*
X175895000Y-79375000D02*
X175895000Y-74295000D01*
X152400000Y-79375000D02*
X154940000Y-79375000D01*
X154940000Y-79375000D02*
X161925000Y-79375000D01*
X161925000Y-79375000D02*
X168910000Y-79375000D01*
X168910000Y-79375000D02*
X175895000Y-79375000D01*
X154305000Y-103505000D02*
X154305000Y-100330000D01*
X165100000Y-118745000D02*
X164465000Y-118745000D01*
X164465000Y-118745000D02*
X162560000Y-120650000D01*
X151765000Y-106045000D02*
X154305000Y-103505000D01*
X151765000Y-118745000D02*
X151765000Y-106045000D01*
X153670000Y-120650000D02*
X151765000Y-118745000D01*
X162560000Y-120650000D02*
X153670000Y-120650000D01*
X170815000Y-118745000D02*
X165100000Y-118745000D01*
X160805000Y-107315000D02*
X163830000Y-107315000D01*
X167640000Y-103505000D02*
X172720000Y-103505000D01*
X163830000Y-107315000D02*
X167640000Y-103505000D01*
X160805000Y-114245000D02*
X160805000Y-107315000D01*
X160805000Y-107315000D02*
X160805000Y-89685000D01*
X160805000Y-89685000D02*
X159385000Y-88265000D01*
X154305000Y-114245000D02*
X160655000Y-114245000D01*
X154305000Y-89535000D02*
X158115000Y-89535000D01*
X158115000Y-89535000D02*
X159385000Y-90805000D01*
X154305000Y-94535000D02*
X158195000Y-94535000D01*
X158195000Y-94535000D02*
X159385000Y-93345000D01*
X175260000Y-106045000D02*
X173990000Y-104775000D01*
X173990000Y-98425000D02*
X172720000Y-97155000D01*
X173990000Y-104775000D02*
X173990000Y-98425000D01*
X172720000Y-97155000D02*
X168275000Y-97155000D01*
X168275000Y-97155000D02*
X167005000Y-95885000D01*
X154305000Y-109855000D02*
X157480000Y-106680000D01*
X163830000Y-99695000D02*
X163830000Y-101600000D01*
X177800000Y-101600000D02*
X177800000Y-103505000D01*
X165735000Y-93345000D02*
X167005000Y-93345000D01*
X163830000Y-95250000D02*
X165735000Y-93345000D01*
X163830000Y-99695000D02*
X163830000Y-95250000D01*
X178435000Y-109855000D02*
X176530000Y-107950000D01*
X176530000Y-104775000D02*
X175260000Y-103505000D01*
X176530000Y-107950000D02*
X176530000Y-104775000D01*
X175260000Y-103505000D02*
X175260000Y-93345000D01*
X172720000Y-90805000D02*
X167005000Y-90805000D01*
X175260000Y-93345000D02*
X172720000Y-90805000D01*
X157480000Y-81915000D02*
X157480000Y-82550000D01*
X158750000Y-75565000D02*
X157480000Y-74295000D01*
X158750000Y-78105000D02*
X158750000Y-75565000D01*
X157480000Y-82550000D02*
X158750000Y-83820000D01*
X164465000Y-81915000D02*
X164465000Y-82550000D01*
X165735000Y-75565000D02*
X164465000Y-74295000D01*
X165735000Y-78105000D02*
X165735000Y-75565000D01*
X164465000Y-82550000D02*
X165735000Y-83820000D01*
X171450000Y-81915000D02*
X171450000Y-82550000D01*
X172720000Y-75565000D02*
X171450000Y-74295000D01*
X172720000Y-78105000D02*
X172720000Y-75565000D01*
X171450000Y-82550000D02*
X172720000Y-83820000D01*
X178435000Y-81915000D02*
X178435000Y-82550000D01*
X179705000Y-75565000D02*
X178435000Y-74295000D01*
X179705000Y-78105000D02*
X179705000Y-75565000D01*
X178435000Y-82550000D02*
X179705000Y-83820000D01*
X173355000Y-118745000D02*
X173355000Y-116840000D01*
X168275000Y-111760000D02*
X168275000Y-109855000D01*
X173355000Y-116840000D02*
X168275000Y-111760000D01*
X156210000Y-80645000D02*
X163195000Y-80645000D01*
X170180000Y-80645000D02*
X163195000Y-80645000D01*
X177165000Y-80645000D02*
X177165000Y-85725000D01*
X177165000Y-80645000D02*
X156210000Y-80645000D01*
X175895000Y-86995000D02*
X172085000Y-86995000D01*
D26*
G36*
X181229000Y-121031000D02*
X162883069Y-121031000D01*
X162917796Y-121007796D01*
X163753362Y-120172230D01*
X163831266Y-120225459D01*
X163982400Y-120256064D01*
X166217600Y-120256064D01*
X166358790Y-120229497D01*
X166488465Y-120146054D01*
X166575459Y-120018734D01*
X166606064Y-119867600D01*
X166606064Y-119251000D01*
X169529831Y-119251000D01*
X169643563Y-119526251D01*
X170031705Y-119915072D01*
X170539097Y-120125759D01*
X171088493Y-120126239D01*
X171596251Y-119916437D01*
X171966536Y-119546799D01*
X171966536Y-119745000D01*
X171993103Y-119886190D01*
X172076546Y-120015865D01*
X172203866Y-120102859D01*
X172355000Y-120133464D01*
X174355000Y-120133464D01*
X174496190Y-120106897D01*
X174625865Y-120023454D01*
X174712859Y-119896134D01*
X174743464Y-119745000D01*
X174743464Y-117745000D01*
X174716897Y-117603810D01*
X174633454Y-117474135D01*
X174506134Y-117387141D01*
X174355000Y-117356536D01*
X173861000Y-117356536D01*
X173861000Y-116840000D01*
X173822483Y-116646362D01*
X173712796Y-116482204D01*
X168781000Y-111550408D01*
X168781000Y-111139617D01*
X169055963Y-111026005D01*
X169444640Y-110638006D01*
X169655249Y-110130801D01*
X169655729Y-109581608D01*
X169446005Y-109074037D01*
X169058006Y-108685360D01*
X168550801Y-108474751D01*
X168001608Y-108474271D01*
X167494037Y-108683995D01*
X167105360Y-109071994D01*
X166894751Y-109579199D01*
X166894271Y-110128392D01*
X167103995Y-110635963D01*
X167491994Y-111024640D01*
X167769000Y-111139662D01*
X167769000Y-111760000D01*
X167807517Y-111953638D01*
X167917204Y-112117796D01*
X172849000Y-117049592D01*
X172849000Y-117356536D01*
X172355000Y-117356536D01*
X172213810Y-117383103D01*
X172084135Y-117466546D01*
X171997141Y-117593866D01*
X171966536Y-117745000D01*
X171966536Y-117943813D01*
X171598295Y-117574928D01*
X171090903Y-117364241D01*
X170541507Y-117363761D01*
X170033749Y-117573563D01*
X169644928Y-117961705D01*
X169529785Y-118239000D01*
X166606064Y-118239000D01*
X166606064Y-117632400D01*
X166579497Y-117491210D01*
X166496054Y-117361535D01*
X166368734Y-117274541D01*
X166217600Y-117243936D01*
X163982400Y-117243936D01*
X163841210Y-117270503D01*
X163711535Y-117353946D01*
X163624541Y-117481266D01*
X163593936Y-117632400D01*
X163593936Y-118900472D01*
X162350408Y-120144000D01*
X153879592Y-120144000D01*
X152271000Y-118535408D01*
X152271000Y-110128392D01*
X152924271Y-110128392D01*
X153133995Y-110635963D01*
X153521994Y-111024640D01*
X154029199Y-111235249D01*
X154578392Y-111235729D01*
X155085963Y-111026005D01*
X155474640Y-110638006D01*
X155685249Y-110130801D01*
X155685729Y-109581608D01*
X155571190Y-109304402D01*
X157235081Y-107640511D01*
X157284011Y-107660829D01*
X157674277Y-107661170D01*
X158034966Y-107512136D01*
X158311166Y-107236417D01*
X158460829Y-106875989D01*
X158461170Y-106485723D01*
X158312136Y-106125034D01*
X158036417Y-105848834D01*
X157675989Y-105699171D01*
X157285723Y-105698830D01*
X156925034Y-105847864D01*
X156648834Y-106123583D01*
X156499171Y-106484011D01*
X156498830Y-106874277D01*
X156519677Y-106924731D01*
X154855565Y-108588843D01*
X154580801Y-108474751D01*
X154031608Y-108474271D01*
X153524037Y-108683995D01*
X153135360Y-109071994D01*
X152924751Y-109579199D01*
X152924271Y-110128392D01*
X152271000Y-110128392D01*
X152271000Y-106254592D01*
X153982128Y-104543464D01*
X154955000Y-104543464D01*
X155096190Y-104516897D01*
X155225865Y-104433454D01*
X155312859Y-104306134D01*
X155343464Y-104155000D01*
X155343464Y-102855000D01*
X155316897Y-102713810D01*
X155233454Y-102584135D01*
X155106134Y-102497141D01*
X154955000Y-102466536D01*
X154811000Y-102466536D01*
X154811000Y-101368464D01*
X154955000Y-101368464D01*
X155096190Y-101341897D01*
X155225865Y-101258454D01*
X155312859Y-101131134D01*
X155343464Y-100980000D01*
X155343464Y-99680000D01*
X155316897Y-99538810D01*
X155233454Y-99409135D01*
X155106134Y-99322141D01*
X154955000Y-99291536D01*
X153655000Y-99291536D01*
X153513810Y-99318103D01*
X153384135Y-99401546D01*
X153297141Y-99528866D01*
X153266536Y-99680000D01*
X153266536Y-100980000D01*
X153293103Y-101121190D01*
X153376546Y-101250865D01*
X153503866Y-101337859D01*
X153655000Y-101368464D01*
X153799000Y-101368464D01*
X153799000Y-102466536D01*
X153655000Y-102466536D01*
X153513810Y-102493103D01*
X153384135Y-102576546D01*
X153297141Y-102703866D01*
X153266536Y-102855000D01*
X153266536Y-103827872D01*
X152271000Y-104823408D01*
X152271000Y-80219592D01*
X152609592Y-79881000D01*
X155751002Y-79881000D01*
X155711391Y-79897367D01*
X155463238Y-80145087D01*
X155328774Y-80468914D01*
X155328468Y-80819548D01*
X155462367Y-81143609D01*
X155710087Y-81391762D01*
X156033914Y-81526226D01*
X156384548Y-81526532D01*
X156708609Y-81392633D01*
X156950664Y-81151000D01*
X157021002Y-81151000D01*
X156981391Y-81167367D01*
X156733238Y-81415087D01*
X156598774Y-81738914D01*
X156598468Y-82089548D01*
X156732367Y-82413609D01*
X156980087Y-82661762D01*
X156997684Y-82669069D01*
X157012517Y-82743638D01*
X157122204Y-82907796D01*
X157789489Y-83575081D01*
X157769171Y-83624011D01*
X157768830Y-84014277D01*
X157917864Y-84374966D01*
X158193583Y-84651166D01*
X158554011Y-84800829D01*
X158944277Y-84801170D01*
X159304966Y-84652136D01*
X159581166Y-84376417D01*
X159730829Y-84015989D01*
X159731170Y-83625723D01*
X159582136Y-83265034D01*
X159306417Y-82988834D01*
X158945989Y-82839171D01*
X158555723Y-82838830D01*
X158505269Y-82859677D01*
X158143561Y-82497969D01*
X158226762Y-82414913D01*
X158361226Y-82091086D01*
X158361532Y-81740452D01*
X158227633Y-81416391D01*
X157979913Y-81168238D01*
X157938399Y-81151000D01*
X162454745Y-81151000D01*
X162695087Y-81391762D01*
X163018914Y-81526226D01*
X163369548Y-81526532D01*
X163693609Y-81392633D01*
X163935664Y-81151000D01*
X164006002Y-81151000D01*
X163966391Y-81167367D01*
X163718238Y-81415087D01*
X163583774Y-81738914D01*
X163583468Y-82089548D01*
X163717367Y-82413609D01*
X163965087Y-82661762D01*
X163982684Y-82669069D01*
X163997517Y-82743638D01*
X164107204Y-82907796D01*
X164774489Y-83575081D01*
X164754171Y-83624011D01*
X164753830Y-84014277D01*
X164902864Y-84374966D01*
X165178583Y-84651166D01*
X165539011Y-84800829D01*
X165929277Y-84801170D01*
X166289966Y-84652136D01*
X166566166Y-84376417D01*
X166715829Y-84015989D01*
X166716170Y-83625723D01*
X166567136Y-83265034D01*
X166291417Y-82988834D01*
X165930989Y-82839171D01*
X165540723Y-82838830D01*
X165490269Y-82859677D01*
X165128561Y-82497969D01*
X165211762Y-82414913D01*
X165346226Y-82091086D01*
X165346532Y-81740452D01*
X165212633Y-81416391D01*
X164964913Y-81168238D01*
X164923399Y-81151000D01*
X169439745Y-81151000D01*
X169680087Y-81391762D01*
X170003914Y-81526226D01*
X170354548Y-81526532D01*
X170678609Y-81392633D01*
X170920664Y-81151000D01*
X170991002Y-81151000D01*
X170951391Y-81167367D01*
X170703238Y-81415087D01*
X170568774Y-81738914D01*
X170568468Y-82089548D01*
X170702367Y-82413609D01*
X170950087Y-82661762D01*
X170967684Y-82669069D01*
X170982517Y-82743638D01*
X171092204Y-82907796D01*
X171759489Y-83575081D01*
X171739171Y-83624011D01*
X171738830Y-84014277D01*
X171887864Y-84374966D01*
X172163583Y-84651166D01*
X172524011Y-84800829D01*
X172914277Y-84801170D01*
X173274966Y-84652136D01*
X173551166Y-84376417D01*
X173700829Y-84015989D01*
X173701170Y-83625723D01*
X173552136Y-83265034D01*
X173276417Y-82988834D01*
X172915989Y-82839171D01*
X172525723Y-82838830D01*
X172475269Y-82859677D01*
X172113561Y-82497969D01*
X172196762Y-82414913D01*
X172331226Y-82091086D01*
X172331532Y-81740452D01*
X172197633Y-81416391D01*
X171949913Y-81168238D01*
X171908399Y-81151000D01*
X176424745Y-81151000D01*
X176659000Y-81385664D01*
X176659000Y-84984745D01*
X176418238Y-85225087D01*
X176283774Y-85548914D01*
X176283468Y-85899548D01*
X176417367Y-86223609D01*
X176665087Y-86471762D01*
X176988914Y-86606226D01*
X177339548Y-86606532D01*
X177663609Y-86472633D01*
X177911762Y-86224913D01*
X178046226Y-85901086D01*
X178046532Y-85550452D01*
X177912633Y-85226391D01*
X177671000Y-84984336D01*
X177671000Y-82373998D01*
X177687367Y-82413609D01*
X177935087Y-82661762D01*
X177952684Y-82669069D01*
X177967517Y-82743638D01*
X178077204Y-82907796D01*
X178744489Y-83575081D01*
X178724171Y-83624011D01*
X178723830Y-84014277D01*
X178872864Y-84374966D01*
X179148583Y-84651166D01*
X179509011Y-84800829D01*
X179899277Y-84801170D01*
X180215000Y-84670716D01*
X180215000Y-87039408D01*
X179495408Y-87759000D01*
X177905255Y-87759000D01*
X177664913Y-87518238D01*
X177341086Y-87383774D01*
X176990452Y-87383468D01*
X176666391Y-87517367D01*
X176424336Y-87759000D01*
X176353998Y-87759000D01*
X176393609Y-87742633D01*
X176641762Y-87494913D01*
X176776226Y-87171086D01*
X176776532Y-86820452D01*
X176642633Y-86496391D01*
X176394913Y-86248238D01*
X176071086Y-86113774D01*
X175720452Y-86113468D01*
X175396391Y-86247367D01*
X175154336Y-86489000D01*
X173369617Y-86489000D01*
X173256005Y-86214037D01*
X172868006Y-85825360D01*
X172360801Y-85614751D01*
X171811608Y-85614271D01*
X171304037Y-85823995D01*
X170915360Y-86211994D01*
X170704751Y-86719199D01*
X170704271Y-87268392D01*
X170913995Y-87775963D01*
X170917393Y-87779367D01*
X170815000Y-87759000D01*
X168083123Y-87759000D01*
X167863230Y-87429907D01*
X167480086Y-87173898D01*
X167028137Y-87084000D01*
X166981863Y-87084000D01*
X166529914Y-87173898D01*
X166146770Y-87429907D01*
X165890761Y-87813051D01*
X165800863Y-88265000D01*
X165890761Y-88716949D01*
X166146770Y-89100093D01*
X166529914Y-89356102D01*
X166981863Y-89446000D01*
X167028137Y-89446000D01*
X167480086Y-89356102D01*
X167863230Y-89100093D01*
X168083123Y-88771000D01*
X170605408Y-88771000D01*
X171092204Y-89257796D01*
X171256362Y-89367483D01*
X171450000Y-89406000D01*
X172720000Y-89406000D01*
X172913638Y-89367483D01*
X173077796Y-89257796D01*
X173564592Y-88771000D01*
X176424745Y-88771000D01*
X176665087Y-89011762D01*
X176988914Y-89146226D01*
X177339548Y-89146532D01*
X177663609Y-89012633D01*
X177905664Y-88771000D01*
X179705000Y-88771000D01*
X179898638Y-88732483D01*
X180062796Y-88622796D01*
X180215000Y-88470592D01*
X180215000Y-104819408D01*
X179495408Y-105539000D01*
X178946299Y-105539000D01*
X178680065Y-105140552D01*
X178276288Y-104870757D01*
X177800000Y-104776017D01*
X177323712Y-104870757D01*
X177036000Y-105063000D01*
X177036000Y-104775000D01*
X177032432Y-104757064D01*
X178663600Y-104757064D01*
X178804790Y-104730497D01*
X178934465Y-104647054D01*
X179021459Y-104519734D01*
X179052064Y-104368600D01*
X179052064Y-102641400D01*
X179025497Y-102500210D01*
X178942054Y-102370535D01*
X178814734Y-102283541D01*
X178663600Y-102252936D01*
X178534479Y-102252936D01*
X178631166Y-102156417D01*
X178780829Y-101795989D01*
X178781170Y-101405723D01*
X178632136Y-101045034D01*
X178356417Y-100768834D01*
X177995989Y-100619171D01*
X177605723Y-100618830D01*
X177245034Y-100767864D01*
X176968834Y-101043583D01*
X176819171Y-101404011D01*
X176818830Y-101794277D01*
X176967864Y-102154966D01*
X177065663Y-102252936D01*
X176936400Y-102252936D01*
X176795210Y-102279503D01*
X176665535Y-102362946D01*
X176578541Y-102490266D01*
X176547936Y-102641400D01*
X176547936Y-104077344D01*
X176420877Y-103950285D01*
X176504600Y-103529383D01*
X176504600Y-103480617D01*
X176409860Y-103004329D01*
X176140065Y-102600552D01*
X175766000Y-102350610D01*
X175766000Y-93345000D01*
X175727483Y-93151362D01*
X175617796Y-92987204D01*
X173077796Y-90447204D01*
X172913638Y-90337517D01*
X172720000Y-90299000D01*
X168083123Y-90299000D01*
X167863230Y-89969907D01*
X167480086Y-89713898D01*
X167028137Y-89624000D01*
X166981863Y-89624000D01*
X166529914Y-89713898D01*
X166146770Y-89969907D01*
X165890761Y-90353051D01*
X165800863Y-90805000D01*
X165890761Y-91256949D01*
X166146770Y-91640093D01*
X166529914Y-91896102D01*
X166981863Y-91986000D01*
X167028137Y-91986000D01*
X167480086Y-91896102D01*
X167863230Y-91640093D01*
X168083123Y-91311000D01*
X172510408Y-91311000D01*
X174754000Y-93554592D01*
X174754000Y-102350610D01*
X174496000Y-102523000D01*
X174496000Y-98425000D01*
X174457483Y-98231362D01*
X174347796Y-98067204D01*
X173465464Y-97184872D01*
X173465729Y-96881608D01*
X173256005Y-96374037D01*
X172868006Y-95985360D01*
X172360801Y-95774751D01*
X171811608Y-95774271D01*
X171304037Y-95983995D01*
X170915360Y-96371994D01*
X170800338Y-96649000D01*
X168484592Y-96649000D01*
X168128082Y-96292490D01*
X168209137Y-95885000D01*
X168119239Y-95433051D01*
X167863230Y-95049907D01*
X167480086Y-94793898D01*
X167028137Y-94704000D01*
X166981863Y-94704000D01*
X166529914Y-94793898D01*
X166146770Y-95049907D01*
X165890761Y-95433051D01*
X165800863Y-95885000D01*
X165890761Y-96336949D01*
X166146770Y-96720093D01*
X166529914Y-96976102D01*
X166981863Y-97066000D01*
X167028137Y-97066000D01*
X167397031Y-96992623D01*
X167917204Y-97512796D01*
X168081362Y-97622483D01*
X168275000Y-97661000D01*
X170800383Y-97661000D01*
X170913995Y-97935963D01*
X171301994Y-98324640D01*
X171809199Y-98535249D01*
X172358392Y-98535729D01*
X172865963Y-98326005D01*
X173020823Y-98171415D01*
X173484000Y-98634592D01*
X173484000Y-102523000D01*
X173196288Y-102330757D01*
X172720000Y-102236017D01*
X172243712Y-102330757D01*
X171839935Y-102600552D01*
X171573701Y-102999000D01*
X167640000Y-102999000D01*
X167446362Y-103037517D01*
X167282204Y-103147204D01*
X163620408Y-106809000D01*
X161311000Y-106809000D01*
X161311000Y-99889277D01*
X162848830Y-99889277D01*
X162997864Y-100249966D01*
X163273583Y-100526166D01*
X163324000Y-100547101D01*
X163324000Y-100747632D01*
X163275034Y-100767864D01*
X162998834Y-101043583D01*
X162849171Y-101404011D01*
X162848830Y-101794277D01*
X162997864Y-102154966D01*
X163273583Y-102431166D01*
X163634011Y-102580829D01*
X164024277Y-102581170D01*
X164384966Y-102432136D01*
X164661166Y-102156417D01*
X164810829Y-101795989D01*
X164811170Y-101405723D01*
X164662136Y-101045034D01*
X164386417Y-100768834D01*
X164336000Y-100747899D01*
X164336000Y-100547368D01*
X164384966Y-100527136D01*
X164661166Y-100251417D01*
X164810829Y-99890989D01*
X164811170Y-99500723D01*
X164662136Y-99140034D01*
X164386417Y-98863834D01*
X164336000Y-98842899D01*
X164336000Y-95459592D01*
X165933973Y-93861619D01*
X166146770Y-94180093D01*
X166529914Y-94436102D01*
X166981863Y-94526000D01*
X167028137Y-94526000D01*
X167480086Y-94436102D01*
X167863230Y-94180093D01*
X168119239Y-93796949D01*
X168209137Y-93345000D01*
X168119239Y-92893051D01*
X167863230Y-92509907D01*
X167480086Y-92253898D01*
X167028137Y-92164000D01*
X166981863Y-92164000D01*
X166529914Y-92253898D01*
X166146770Y-92509907D01*
X165926877Y-92839000D01*
X165735000Y-92839000D01*
X165541362Y-92877517D01*
X165377204Y-92987204D01*
X163472204Y-94892204D01*
X163362517Y-95056362D01*
X163324000Y-95250000D01*
X163324000Y-98842632D01*
X163275034Y-98862864D01*
X162998834Y-99138583D01*
X162849171Y-99499011D01*
X162848830Y-99889277D01*
X161311000Y-99889277D01*
X161311000Y-89685000D01*
X161272483Y-89491362D01*
X161162796Y-89327204D01*
X160508082Y-88672490D01*
X160589137Y-88265000D01*
X160499239Y-87813051D01*
X160243230Y-87429907D01*
X159860086Y-87173898D01*
X159408137Y-87084000D01*
X159361863Y-87084000D01*
X158909914Y-87173898D01*
X158526770Y-87429907D01*
X158270761Y-87813051D01*
X158180863Y-88265000D01*
X158270761Y-88716949D01*
X158526770Y-89100093D01*
X158909914Y-89356102D01*
X159361863Y-89446000D01*
X159408137Y-89446000D01*
X159777031Y-89372623D01*
X160299000Y-89894592D01*
X160299000Y-90053373D01*
X160243230Y-89969907D01*
X159860086Y-89713898D01*
X159408137Y-89624000D01*
X159361863Y-89624000D01*
X158992969Y-89697377D01*
X158472796Y-89177204D01*
X158308638Y-89067517D01*
X158115000Y-89029000D01*
X155332653Y-89029000D01*
X155274554Y-88888388D01*
X154953303Y-88566577D01*
X154533354Y-88392199D01*
X154078641Y-88391802D01*
X153658388Y-88565446D01*
X153336577Y-88886697D01*
X153162199Y-89306646D01*
X153161802Y-89761359D01*
X153335446Y-90181612D01*
X153656697Y-90503423D01*
X154076646Y-90677801D01*
X154531359Y-90678198D01*
X154951612Y-90504554D01*
X155273423Y-90183303D01*
X155332512Y-90041000D01*
X157905408Y-90041000D01*
X158261918Y-90397510D01*
X158180863Y-90805000D01*
X158270761Y-91256949D01*
X158526770Y-91640093D01*
X158909914Y-91896102D01*
X159361863Y-91986000D01*
X159408137Y-91986000D01*
X159860086Y-91896102D01*
X160243230Y-91640093D01*
X160299000Y-91556627D01*
X160299000Y-92593373D01*
X160243230Y-92509907D01*
X159860086Y-92253898D01*
X159408137Y-92164000D01*
X159361863Y-92164000D01*
X158909914Y-92253898D01*
X158526770Y-92509907D01*
X158270761Y-92893051D01*
X158180863Y-93345000D01*
X158261918Y-93752490D01*
X157985408Y-94029000D01*
X155332653Y-94029000D01*
X155274554Y-93888388D01*
X154953303Y-93566577D01*
X154533354Y-93392199D01*
X154078641Y-93391802D01*
X153658388Y-93565446D01*
X153336577Y-93886697D01*
X153162199Y-94306646D01*
X153161802Y-94761359D01*
X153335446Y-95181612D01*
X153656697Y-95503423D01*
X154076646Y-95677801D01*
X154531359Y-95678198D01*
X154951612Y-95504554D01*
X155273423Y-95183303D01*
X155332512Y-95041000D01*
X158195000Y-95041000D01*
X158388638Y-95002483D01*
X158552796Y-94892796D01*
X158992969Y-94452623D01*
X159361863Y-94526000D01*
X159408137Y-94526000D01*
X159860086Y-94436102D01*
X160243230Y-94180093D01*
X160299000Y-94096627D01*
X160299000Y-113217347D01*
X160158388Y-113275446D01*
X159836577Y-113596697D01*
X159777488Y-113739000D01*
X155332653Y-113739000D01*
X155274554Y-113598388D01*
X154953303Y-113276577D01*
X154533354Y-113102199D01*
X154078641Y-113101802D01*
X153658388Y-113275446D01*
X153336577Y-113596697D01*
X153162199Y-114016646D01*
X153161802Y-114471359D01*
X153335446Y-114891612D01*
X153656697Y-115213423D01*
X154076646Y-115387801D01*
X154531359Y-115388198D01*
X154951612Y-115214554D01*
X155273423Y-114893303D01*
X155332512Y-114751000D01*
X159777347Y-114751000D01*
X159835446Y-114891612D01*
X160156697Y-115213423D01*
X160576646Y-115387801D01*
X161031359Y-115388198D01*
X161451612Y-115214554D01*
X161773423Y-114893303D01*
X161947801Y-114473354D01*
X161948198Y-114018641D01*
X161774554Y-113598388D01*
X161453303Y-113276577D01*
X161311000Y-113217488D01*
X161311000Y-107821000D01*
X163830000Y-107821000D01*
X164023638Y-107782483D01*
X164187796Y-107672796D01*
X167849592Y-104011000D01*
X171573701Y-104011000D01*
X171839935Y-104409448D01*
X172243712Y-104679243D01*
X172720000Y-104773983D01*
X173196288Y-104679243D01*
X173484000Y-104487000D01*
X173484000Y-104775000D01*
X173522517Y-104968638D01*
X173632204Y-105132796D01*
X174099123Y-105599715D01*
X174015400Y-106020617D01*
X174015400Y-106069383D01*
X174110140Y-106545671D01*
X174379935Y-106949448D01*
X174783712Y-107219243D01*
X175260000Y-107313983D01*
X175736288Y-107219243D01*
X176024000Y-107027000D01*
X176024000Y-107950000D01*
X176062517Y-108143638D01*
X176172204Y-108307796D01*
X177168843Y-109304435D01*
X177054751Y-109579199D01*
X177054271Y-110128392D01*
X177263995Y-110635963D01*
X177651994Y-111024640D01*
X178159199Y-111235249D01*
X178708392Y-111235729D01*
X179215963Y-111026005D01*
X179604640Y-110638006D01*
X179815249Y-110130801D01*
X179815729Y-109581608D01*
X179606005Y-109074037D01*
X179218006Y-108685360D01*
X178710801Y-108474751D01*
X178161608Y-108474271D01*
X177884402Y-108588810D01*
X177036000Y-107740408D01*
X177036000Y-107027000D01*
X177323712Y-107219243D01*
X177800000Y-107313983D01*
X178276288Y-107219243D01*
X178680065Y-106949448D01*
X178946299Y-106551000D01*
X179705000Y-106551000D01*
X179898638Y-106512483D01*
X180062796Y-106402796D01*
X181078796Y-105386796D01*
X181188483Y-105222638D01*
X181227000Y-105029000D01*
X181227000Y-80391000D01*
X181188483Y-80197362D01*
X181078796Y-80033204D01*
X180063787Y-79018195D01*
X180259966Y-78937136D01*
X180536166Y-78661417D01*
X180685829Y-78300989D01*
X180686170Y-77910723D01*
X180537136Y-77550034D01*
X180261417Y-77273834D01*
X180211000Y-77252899D01*
X180211000Y-75565000D01*
X180172483Y-75371362D01*
X180062796Y-75207204D01*
X179773464Y-74917872D01*
X179773464Y-73295000D01*
X179746897Y-73153810D01*
X179663454Y-73024135D01*
X179536134Y-72937141D01*
X179385000Y-72906536D01*
X177485000Y-72906536D01*
X177343810Y-72933103D01*
X177214135Y-73016546D01*
X177127141Y-73143866D01*
X177096536Y-73295000D01*
X177096536Y-73717524D01*
X177024025Y-73542034D01*
X176649935Y-73167291D01*
X176160914Y-72964231D01*
X175631409Y-72963769D01*
X175142034Y-73165975D01*
X174767291Y-73540065D01*
X174564231Y-74029086D01*
X174563769Y-74558591D01*
X174765975Y-75047966D01*
X175140065Y-75422709D01*
X175389000Y-75526076D01*
X175389000Y-78869000D01*
X173343221Y-78869000D01*
X173551166Y-78661417D01*
X173700829Y-78300989D01*
X173701170Y-77910723D01*
X173552136Y-77550034D01*
X173276417Y-77273834D01*
X173226000Y-77252899D01*
X173226000Y-75565000D01*
X173187483Y-75371362D01*
X173077796Y-75207204D01*
X172788464Y-74917872D01*
X172788464Y-73295000D01*
X172761897Y-73153810D01*
X172678454Y-73024135D01*
X172551134Y-72937141D01*
X172400000Y-72906536D01*
X170500000Y-72906536D01*
X170358810Y-72933103D01*
X170229135Y-73016546D01*
X170142141Y-73143866D01*
X170111536Y-73295000D01*
X170111536Y-73717524D01*
X170039025Y-73542034D01*
X169664935Y-73167291D01*
X169175914Y-72964231D01*
X168646409Y-72963769D01*
X168157034Y-73165975D01*
X167782291Y-73540065D01*
X167579231Y-74029086D01*
X167578769Y-74558591D01*
X167780975Y-75047966D01*
X168155065Y-75422709D01*
X168404000Y-75526076D01*
X168404000Y-78869000D01*
X166358221Y-78869000D01*
X166566166Y-78661417D01*
X166715829Y-78300989D01*
X166716170Y-77910723D01*
X166567136Y-77550034D01*
X166291417Y-77273834D01*
X166241000Y-77252899D01*
X166241000Y-75565000D01*
X166202483Y-75371362D01*
X166092796Y-75207204D01*
X165803464Y-74917872D01*
X165803464Y-73295000D01*
X165776897Y-73153810D01*
X165693454Y-73024135D01*
X165566134Y-72937141D01*
X165415000Y-72906536D01*
X163515000Y-72906536D01*
X163373810Y-72933103D01*
X163244135Y-73016546D01*
X163157141Y-73143866D01*
X163126536Y-73295000D01*
X163126536Y-73717524D01*
X163054025Y-73542034D01*
X162679935Y-73167291D01*
X162190914Y-72964231D01*
X161661409Y-72963769D01*
X161172034Y-73165975D01*
X160797291Y-73540065D01*
X160594231Y-74029086D01*
X160593769Y-74558591D01*
X160795975Y-75047966D01*
X161170065Y-75422709D01*
X161419000Y-75526076D01*
X161419000Y-78869000D01*
X159373221Y-78869000D01*
X159581166Y-78661417D01*
X159730829Y-78300989D01*
X159731170Y-77910723D01*
X159582136Y-77550034D01*
X159306417Y-77273834D01*
X159256000Y-77252899D01*
X159256000Y-75565000D01*
X159217483Y-75371362D01*
X159107796Y-75207204D01*
X158818464Y-74917872D01*
X158818464Y-73295000D01*
X158791897Y-73153810D01*
X158708454Y-73024135D01*
X158581134Y-72937141D01*
X158430000Y-72906536D01*
X156530000Y-72906536D01*
X156388810Y-72933103D01*
X156259135Y-73016546D01*
X156172141Y-73143866D01*
X156141536Y-73295000D01*
X156141536Y-73717524D01*
X156069025Y-73542034D01*
X155694935Y-73167291D01*
X155205914Y-72964231D01*
X154676409Y-72963769D01*
X154187034Y-73165975D01*
X153812291Y-73540065D01*
X153609231Y-74029086D01*
X153608769Y-74558591D01*
X153810975Y-75047966D01*
X154185065Y-75422709D01*
X154434000Y-75526076D01*
X154434000Y-78869000D01*
X152400000Y-78869000D01*
X152206362Y-78907517D01*
X152042204Y-79017204D01*
X151511000Y-79548408D01*
X151511000Y-69977000D01*
X181229000Y-69977000D01*
X181229000Y-121031000D01*
X181229000Y-121031000D01*
G37*
X181229000Y-121031000D02*
X162883069Y-121031000D01*
X162917796Y-121007796D01*
X163753362Y-120172230D01*
X163831266Y-120225459D01*
X163982400Y-120256064D01*
X166217600Y-120256064D01*
X166358790Y-120229497D01*
X166488465Y-120146054D01*
X166575459Y-120018734D01*
X166606064Y-119867600D01*
X166606064Y-119251000D01*
X169529831Y-119251000D01*
X169643563Y-119526251D01*
X170031705Y-119915072D01*
X170539097Y-120125759D01*
X171088493Y-120126239D01*
X171596251Y-119916437D01*
X171966536Y-119546799D01*
X171966536Y-119745000D01*
X171993103Y-119886190D01*
X172076546Y-120015865D01*
X172203866Y-120102859D01*
X172355000Y-120133464D01*
X174355000Y-120133464D01*
X174496190Y-120106897D01*
X174625865Y-120023454D01*
X174712859Y-119896134D01*
X174743464Y-119745000D01*
X174743464Y-117745000D01*
X174716897Y-117603810D01*
X174633454Y-117474135D01*
X174506134Y-117387141D01*
X174355000Y-117356536D01*
X173861000Y-117356536D01*
X173861000Y-116840000D01*
X173822483Y-116646362D01*
X173712796Y-116482204D01*
X168781000Y-111550408D01*
X168781000Y-111139617D01*
X169055963Y-111026005D01*
X169444640Y-110638006D01*
X169655249Y-110130801D01*
X169655729Y-109581608D01*
X169446005Y-109074037D01*
X169058006Y-108685360D01*
X168550801Y-108474751D01*
X168001608Y-108474271D01*
X167494037Y-108683995D01*
X167105360Y-109071994D01*
X166894751Y-109579199D01*
X166894271Y-110128392D01*
X167103995Y-110635963D01*
X167491994Y-111024640D01*
X167769000Y-111139662D01*
X167769000Y-111760000D01*
X167807517Y-111953638D01*
X167917204Y-112117796D01*
X172849000Y-117049592D01*
X172849000Y-117356536D01*
X172355000Y-117356536D01*
X172213810Y-117383103D01*
X172084135Y-117466546D01*
X171997141Y-117593866D01*
X171966536Y-117745000D01*
X171966536Y-117943813D01*
X171598295Y-117574928D01*
X171090903Y-117364241D01*
X170541507Y-117363761D01*
X170033749Y-117573563D01*
X169644928Y-117961705D01*
X169529785Y-118239000D01*
X166606064Y-118239000D01*
X166606064Y-117632400D01*
X166579497Y-117491210D01*
X166496054Y-117361535D01*
X166368734Y-117274541D01*
X166217600Y-117243936D01*
X163982400Y-117243936D01*
X163841210Y-117270503D01*
X163711535Y-117353946D01*
X163624541Y-117481266D01*
X163593936Y-117632400D01*
X163593936Y-118900472D01*
X162350408Y-120144000D01*
X153879592Y-120144000D01*
X152271000Y-118535408D01*
X152271000Y-110128392D01*
X152924271Y-110128392D01*
X153133995Y-110635963D01*
X153521994Y-111024640D01*
X154029199Y-111235249D01*
X154578392Y-111235729D01*
X155085963Y-111026005D01*
X155474640Y-110638006D01*
X155685249Y-110130801D01*
X155685729Y-109581608D01*
X155571190Y-109304402D01*
X157235081Y-107640511D01*
X157284011Y-107660829D01*
X157674277Y-107661170D01*
X158034966Y-107512136D01*
X158311166Y-107236417D01*
X158460829Y-106875989D01*
X158461170Y-106485723D01*
X158312136Y-106125034D01*
X158036417Y-105848834D01*
X157675989Y-105699171D01*
X157285723Y-105698830D01*
X156925034Y-105847864D01*
X156648834Y-106123583D01*
X156499171Y-106484011D01*
X156498830Y-106874277D01*
X156519677Y-106924731D01*
X154855565Y-108588843D01*
X154580801Y-108474751D01*
X154031608Y-108474271D01*
X153524037Y-108683995D01*
X153135360Y-109071994D01*
X152924751Y-109579199D01*
X152924271Y-110128392D01*
X152271000Y-110128392D01*
X152271000Y-106254592D01*
X153982128Y-104543464D01*
X154955000Y-104543464D01*
X155096190Y-104516897D01*
X155225865Y-104433454D01*
X155312859Y-104306134D01*
X155343464Y-104155000D01*
X155343464Y-102855000D01*
X155316897Y-102713810D01*
X155233454Y-102584135D01*
X155106134Y-102497141D01*
X154955000Y-102466536D01*
X154811000Y-102466536D01*
X154811000Y-101368464D01*
X154955000Y-101368464D01*
X155096190Y-101341897D01*
X155225865Y-101258454D01*
X155312859Y-101131134D01*
X155343464Y-100980000D01*
X155343464Y-99680000D01*
X155316897Y-99538810D01*
X155233454Y-99409135D01*
X155106134Y-99322141D01*
X154955000Y-99291536D01*
X153655000Y-99291536D01*
X153513810Y-99318103D01*
X153384135Y-99401546D01*
X153297141Y-99528866D01*
X153266536Y-99680000D01*
X153266536Y-100980000D01*
X153293103Y-101121190D01*
X153376546Y-101250865D01*
X153503866Y-101337859D01*
X153655000Y-101368464D01*
X153799000Y-101368464D01*
X153799000Y-102466536D01*
X153655000Y-102466536D01*
X153513810Y-102493103D01*
X153384135Y-102576546D01*
X153297141Y-102703866D01*
X153266536Y-102855000D01*
X153266536Y-103827872D01*
X152271000Y-104823408D01*
X152271000Y-80219592D01*
X152609592Y-79881000D01*
X155751002Y-79881000D01*
X155711391Y-79897367D01*
X155463238Y-80145087D01*
X155328774Y-80468914D01*
X155328468Y-80819548D01*
X155462367Y-81143609D01*
X155710087Y-81391762D01*
X156033914Y-81526226D01*
X156384548Y-81526532D01*
X156708609Y-81392633D01*
X156950664Y-81151000D01*
X157021002Y-81151000D01*
X156981391Y-81167367D01*
X156733238Y-81415087D01*
X156598774Y-81738914D01*
X156598468Y-82089548D01*
X156732367Y-82413609D01*
X156980087Y-82661762D01*
X156997684Y-82669069D01*
X157012517Y-82743638D01*
X157122204Y-82907796D01*
X157789489Y-83575081D01*
X157769171Y-83624011D01*
X157768830Y-84014277D01*
X157917864Y-84374966D01*
X158193583Y-84651166D01*
X158554011Y-84800829D01*
X158944277Y-84801170D01*
X159304966Y-84652136D01*
X159581166Y-84376417D01*
X159730829Y-84015989D01*
X159731170Y-83625723D01*
X159582136Y-83265034D01*
X159306417Y-82988834D01*
X158945989Y-82839171D01*
X158555723Y-82838830D01*
X158505269Y-82859677D01*
X158143561Y-82497969D01*
X158226762Y-82414913D01*
X158361226Y-82091086D01*
X158361532Y-81740452D01*
X158227633Y-81416391D01*
X157979913Y-81168238D01*
X157938399Y-81151000D01*
X162454745Y-81151000D01*
X162695087Y-81391762D01*
X163018914Y-81526226D01*
X163369548Y-81526532D01*
X163693609Y-81392633D01*
X163935664Y-81151000D01*
X164006002Y-81151000D01*
X163966391Y-81167367D01*
X163718238Y-81415087D01*
X163583774Y-81738914D01*
X163583468Y-82089548D01*
X163717367Y-82413609D01*
X163965087Y-82661762D01*
X163982684Y-82669069D01*
X163997517Y-82743638D01*
X164107204Y-82907796D01*
X164774489Y-83575081D01*
X164754171Y-83624011D01*
X164753830Y-84014277D01*
X164902864Y-84374966D01*
X165178583Y-84651166D01*
X165539011Y-84800829D01*
X165929277Y-84801170D01*
X166289966Y-84652136D01*
X166566166Y-84376417D01*
X166715829Y-84015989D01*
X166716170Y-83625723D01*
X166567136Y-83265034D01*
X166291417Y-82988834D01*
X165930989Y-82839171D01*
X165540723Y-82838830D01*
X165490269Y-82859677D01*
X165128561Y-82497969D01*
X165211762Y-82414913D01*
X165346226Y-82091086D01*
X165346532Y-81740452D01*
X165212633Y-81416391D01*
X164964913Y-81168238D01*
X164923399Y-81151000D01*
X169439745Y-81151000D01*
X169680087Y-81391762D01*
X170003914Y-81526226D01*
X170354548Y-81526532D01*
X170678609Y-81392633D01*
X170920664Y-81151000D01*
X170991002Y-81151000D01*
X170951391Y-81167367D01*
X170703238Y-81415087D01*
X170568774Y-81738914D01*
X170568468Y-82089548D01*
X170702367Y-82413609D01*
X170950087Y-82661762D01*
X170967684Y-82669069D01*
X170982517Y-82743638D01*
X171092204Y-82907796D01*
X171759489Y-83575081D01*
X171739171Y-83624011D01*
X171738830Y-84014277D01*
X171887864Y-84374966D01*
X172163583Y-84651166D01*
X172524011Y-84800829D01*
X172914277Y-84801170D01*
X173274966Y-84652136D01*
X173551166Y-84376417D01*
X173700829Y-84015989D01*
X173701170Y-83625723D01*
X173552136Y-83265034D01*
X173276417Y-82988834D01*
X172915989Y-82839171D01*
X172525723Y-82838830D01*
X172475269Y-82859677D01*
X172113561Y-82497969D01*
X172196762Y-82414913D01*
X172331226Y-82091086D01*
X172331532Y-81740452D01*
X172197633Y-81416391D01*
X171949913Y-81168238D01*
X171908399Y-81151000D01*
X176424745Y-81151000D01*
X176659000Y-81385664D01*
X176659000Y-84984745D01*
X176418238Y-85225087D01*
X176283774Y-85548914D01*
X176283468Y-85899548D01*
X176417367Y-86223609D01*
X176665087Y-86471762D01*
X176988914Y-86606226D01*
X177339548Y-86606532D01*
X177663609Y-86472633D01*
X177911762Y-86224913D01*
X178046226Y-85901086D01*
X178046532Y-85550452D01*
X177912633Y-85226391D01*
X177671000Y-84984336D01*
X177671000Y-82373998D01*
X177687367Y-82413609D01*
X177935087Y-82661762D01*
X177952684Y-82669069D01*
X177967517Y-82743638D01*
X178077204Y-82907796D01*
X178744489Y-83575081D01*
X178724171Y-83624011D01*
X178723830Y-84014277D01*
X178872864Y-84374966D01*
X179148583Y-84651166D01*
X179509011Y-84800829D01*
X179899277Y-84801170D01*
X180215000Y-84670716D01*
X180215000Y-87039408D01*
X179495408Y-87759000D01*
X177905255Y-87759000D01*
X177664913Y-87518238D01*
X177341086Y-87383774D01*
X176990452Y-87383468D01*
X176666391Y-87517367D01*
X176424336Y-87759000D01*
X176353998Y-87759000D01*
X176393609Y-87742633D01*
X176641762Y-87494913D01*
X176776226Y-87171086D01*
X176776532Y-86820452D01*
X176642633Y-86496391D01*
X176394913Y-86248238D01*
X176071086Y-86113774D01*
X175720452Y-86113468D01*
X175396391Y-86247367D01*
X175154336Y-86489000D01*
X173369617Y-86489000D01*
X173256005Y-86214037D01*
X172868006Y-85825360D01*
X172360801Y-85614751D01*
X171811608Y-85614271D01*
X171304037Y-85823995D01*
X170915360Y-86211994D01*
X170704751Y-86719199D01*
X170704271Y-87268392D01*
X170913995Y-87775963D01*
X170917393Y-87779367D01*
X170815000Y-87759000D01*
X168083123Y-87759000D01*
X167863230Y-87429907D01*
X167480086Y-87173898D01*
X167028137Y-87084000D01*
X166981863Y-87084000D01*
X166529914Y-87173898D01*
X166146770Y-87429907D01*
X165890761Y-87813051D01*
X165800863Y-88265000D01*
X165890761Y-88716949D01*
X166146770Y-89100093D01*
X166529914Y-89356102D01*
X166981863Y-89446000D01*
X167028137Y-89446000D01*
X167480086Y-89356102D01*
X167863230Y-89100093D01*
X168083123Y-88771000D01*
X170605408Y-88771000D01*
X171092204Y-89257796D01*
X171256362Y-89367483D01*
X171450000Y-89406000D01*
X172720000Y-89406000D01*
X172913638Y-89367483D01*
X173077796Y-89257796D01*
X173564592Y-88771000D01*
X176424745Y-88771000D01*
X176665087Y-89011762D01*
X176988914Y-89146226D01*
X177339548Y-89146532D01*
X177663609Y-89012633D01*
X177905664Y-88771000D01*
X179705000Y-88771000D01*
X179898638Y-88732483D01*
X180062796Y-88622796D01*
X180215000Y-88470592D01*
X180215000Y-104819408D01*
X179495408Y-105539000D01*
X178946299Y-105539000D01*
X178680065Y-105140552D01*
X178276288Y-104870757D01*
X177800000Y-104776017D01*
X177323712Y-104870757D01*
X177036000Y-105063000D01*
X177036000Y-104775000D01*
X177032432Y-104757064D01*
X178663600Y-104757064D01*
X178804790Y-104730497D01*
X178934465Y-104647054D01*
X179021459Y-104519734D01*
X179052064Y-104368600D01*
X179052064Y-102641400D01*
X179025497Y-102500210D01*
X178942054Y-102370535D01*
X178814734Y-102283541D01*
X178663600Y-102252936D01*
X178534479Y-102252936D01*
X178631166Y-102156417D01*
X178780829Y-101795989D01*
X178781170Y-101405723D01*
X178632136Y-101045034D01*
X178356417Y-100768834D01*
X177995989Y-100619171D01*
X177605723Y-100618830D01*
X177245034Y-100767864D01*
X176968834Y-101043583D01*
X176819171Y-101404011D01*
X176818830Y-101794277D01*
X176967864Y-102154966D01*
X177065663Y-102252936D01*
X176936400Y-102252936D01*
X176795210Y-102279503D01*
X176665535Y-102362946D01*
X176578541Y-102490266D01*
X176547936Y-102641400D01*
X176547936Y-104077344D01*
X176420877Y-103950285D01*
X176504600Y-103529383D01*
X176504600Y-103480617D01*
X176409860Y-103004329D01*
X176140065Y-102600552D01*
X175766000Y-102350610D01*
X175766000Y-93345000D01*
X175727483Y-93151362D01*
X175617796Y-92987204D01*
X173077796Y-90447204D01*
X172913638Y-90337517D01*
X172720000Y-90299000D01*
X168083123Y-90299000D01*
X167863230Y-89969907D01*
X167480086Y-89713898D01*
X167028137Y-89624000D01*
X166981863Y-89624000D01*
X166529914Y-89713898D01*
X166146770Y-89969907D01*
X165890761Y-90353051D01*
X165800863Y-90805000D01*
X165890761Y-91256949D01*
X166146770Y-91640093D01*
X166529914Y-91896102D01*
X166981863Y-91986000D01*
X167028137Y-91986000D01*
X167480086Y-91896102D01*
X167863230Y-91640093D01*
X168083123Y-91311000D01*
X172510408Y-91311000D01*
X174754000Y-93554592D01*
X174754000Y-102350610D01*
X174496000Y-102523000D01*
X174496000Y-98425000D01*
X174457483Y-98231362D01*
X174347796Y-98067204D01*
X173465464Y-97184872D01*
X173465729Y-96881608D01*
X173256005Y-96374037D01*
X172868006Y-95985360D01*
X172360801Y-95774751D01*
X171811608Y-95774271D01*
X171304037Y-95983995D01*
X170915360Y-96371994D01*
X170800338Y-96649000D01*
X168484592Y-96649000D01*
X168128082Y-96292490D01*
X168209137Y-95885000D01*
X168119239Y-95433051D01*
X167863230Y-95049907D01*
X167480086Y-94793898D01*
X167028137Y-94704000D01*
X166981863Y-94704000D01*
X166529914Y-94793898D01*
X166146770Y-95049907D01*
X165890761Y-95433051D01*
X165800863Y-95885000D01*
X165890761Y-96336949D01*
X166146770Y-96720093D01*
X166529914Y-96976102D01*
X166981863Y-97066000D01*
X167028137Y-97066000D01*
X167397031Y-96992623D01*
X167917204Y-97512796D01*
X168081362Y-97622483D01*
X168275000Y-97661000D01*
X170800383Y-97661000D01*
X170913995Y-97935963D01*
X171301994Y-98324640D01*
X171809199Y-98535249D01*
X172358392Y-98535729D01*
X172865963Y-98326005D01*
X173020823Y-98171415D01*
X173484000Y-98634592D01*
X173484000Y-102523000D01*
X173196288Y-102330757D01*
X172720000Y-102236017D01*
X172243712Y-102330757D01*
X171839935Y-102600552D01*
X171573701Y-102999000D01*
X167640000Y-102999000D01*
X167446362Y-103037517D01*
X167282204Y-103147204D01*
X163620408Y-106809000D01*
X161311000Y-106809000D01*
X161311000Y-99889277D01*
X162848830Y-99889277D01*
X162997864Y-100249966D01*
X163273583Y-100526166D01*
X163324000Y-100547101D01*
X163324000Y-100747632D01*
X163275034Y-100767864D01*
X162998834Y-101043583D01*
X162849171Y-101404011D01*
X162848830Y-101794277D01*
X162997864Y-102154966D01*
X163273583Y-102431166D01*
X163634011Y-102580829D01*
X164024277Y-102581170D01*
X164384966Y-102432136D01*
X164661166Y-102156417D01*
X164810829Y-101795989D01*
X164811170Y-101405723D01*
X164662136Y-101045034D01*
X164386417Y-100768834D01*
X164336000Y-100747899D01*
X164336000Y-100547368D01*
X164384966Y-100527136D01*
X164661166Y-100251417D01*
X164810829Y-99890989D01*
X164811170Y-99500723D01*
X164662136Y-99140034D01*
X164386417Y-98863834D01*
X164336000Y-98842899D01*
X164336000Y-95459592D01*
X165933973Y-93861619D01*
X166146770Y-94180093D01*
X166529914Y-94436102D01*
X166981863Y-94526000D01*
X167028137Y-94526000D01*
X167480086Y-94436102D01*
X167863230Y-94180093D01*
X168119239Y-93796949D01*
X168209137Y-93345000D01*
X168119239Y-92893051D01*
X167863230Y-92509907D01*
X167480086Y-92253898D01*
X167028137Y-92164000D01*
X166981863Y-92164000D01*
X166529914Y-92253898D01*
X166146770Y-92509907D01*
X165926877Y-92839000D01*
X165735000Y-92839000D01*
X165541362Y-92877517D01*
X165377204Y-92987204D01*
X163472204Y-94892204D01*
X163362517Y-95056362D01*
X163324000Y-95250000D01*
X163324000Y-98842632D01*
X163275034Y-98862864D01*
X162998834Y-99138583D01*
X162849171Y-99499011D01*
X162848830Y-99889277D01*
X161311000Y-99889277D01*
X161311000Y-89685000D01*
X161272483Y-89491362D01*
X161162796Y-89327204D01*
X160508082Y-88672490D01*
X160589137Y-88265000D01*
X160499239Y-87813051D01*
X160243230Y-87429907D01*
X159860086Y-87173898D01*
X159408137Y-87084000D01*
X159361863Y-87084000D01*
X158909914Y-87173898D01*
X158526770Y-87429907D01*
X158270761Y-87813051D01*
X158180863Y-88265000D01*
X158270761Y-88716949D01*
X158526770Y-89100093D01*
X158909914Y-89356102D01*
X159361863Y-89446000D01*
X159408137Y-89446000D01*
X159777031Y-89372623D01*
X160299000Y-89894592D01*
X160299000Y-90053373D01*
X160243230Y-89969907D01*
X159860086Y-89713898D01*
X159408137Y-89624000D01*
X159361863Y-89624000D01*
X158992969Y-89697377D01*
X158472796Y-89177204D01*
X158308638Y-89067517D01*
X158115000Y-89029000D01*
X155332653Y-89029000D01*
X155274554Y-88888388D01*
X154953303Y-88566577D01*
X154533354Y-88392199D01*
X154078641Y-88391802D01*
X153658388Y-88565446D01*
X153336577Y-88886697D01*
X153162199Y-89306646D01*
X153161802Y-89761359D01*
X153335446Y-90181612D01*
X153656697Y-90503423D01*
X154076646Y-90677801D01*
X154531359Y-90678198D01*
X154951612Y-90504554D01*
X155273423Y-90183303D01*
X155332512Y-90041000D01*
X157905408Y-90041000D01*
X158261918Y-90397510D01*
X158180863Y-90805000D01*
X158270761Y-91256949D01*
X158526770Y-91640093D01*
X158909914Y-91896102D01*
X159361863Y-91986000D01*
X159408137Y-91986000D01*
X159860086Y-91896102D01*
X160243230Y-91640093D01*
X160299000Y-91556627D01*
X160299000Y-92593373D01*
X160243230Y-92509907D01*
X159860086Y-92253898D01*
X159408137Y-92164000D01*
X159361863Y-92164000D01*
X158909914Y-92253898D01*
X158526770Y-92509907D01*
X158270761Y-92893051D01*
X158180863Y-93345000D01*
X158261918Y-93752490D01*
X157985408Y-94029000D01*
X155332653Y-94029000D01*
X155274554Y-93888388D01*
X154953303Y-93566577D01*
X154533354Y-93392199D01*
X154078641Y-93391802D01*
X153658388Y-93565446D01*
X153336577Y-93886697D01*
X153162199Y-94306646D01*
X153161802Y-94761359D01*
X153335446Y-95181612D01*
X153656697Y-95503423D01*
X154076646Y-95677801D01*
X154531359Y-95678198D01*
X154951612Y-95504554D01*
X155273423Y-95183303D01*
X155332512Y-95041000D01*
X158195000Y-95041000D01*
X158388638Y-95002483D01*
X158552796Y-94892796D01*
X158992969Y-94452623D01*
X159361863Y-94526000D01*
X159408137Y-94526000D01*
X159860086Y-94436102D01*
X160243230Y-94180093D01*
X160299000Y-94096627D01*
X160299000Y-113217347D01*
X160158388Y-113275446D01*
X159836577Y-113596697D01*
X159777488Y-113739000D01*
X155332653Y-113739000D01*
X155274554Y-113598388D01*
X154953303Y-113276577D01*
X154533354Y-113102199D01*
X154078641Y-113101802D01*
X153658388Y-113275446D01*
X153336577Y-113596697D01*
X153162199Y-114016646D01*
X153161802Y-114471359D01*
X153335446Y-114891612D01*
X153656697Y-115213423D01*
X154076646Y-115387801D01*
X154531359Y-115388198D01*
X154951612Y-115214554D01*
X155273423Y-114893303D01*
X155332512Y-114751000D01*
X159777347Y-114751000D01*
X159835446Y-114891612D01*
X160156697Y-115213423D01*
X160576646Y-115387801D01*
X161031359Y-115388198D01*
X161451612Y-115214554D01*
X161773423Y-114893303D01*
X161947801Y-114473354D01*
X161948198Y-114018641D01*
X161774554Y-113598388D01*
X161453303Y-113276577D01*
X161311000Y-113217488D01*
X161311000Y-107821000D01*
X163830000Y-107821000D01*
X164023638Y-107782483D01*
X164187796Y-107672796D01*
X167849592Y-104011000D01*
X171573701Y-104011000D01*
X171839935Y-104409448D01*
X172243712Y-104679243D01*
X172720000Y-104773983D01*
X173196288Y-104679243D01*
X173484000Y-104487000D01*
X173484000Y-104775000D01*
X173522517Y-104968638D01*
X173632204Y-105132796D01*
X174099123Y-105599715D01*
X174015400Y-106020617D01*
X174015400Y-106069383D01*
X174110140Y-106545671D01*
X174379935Y-106949448D01*
X174783712Y-107219243D01*
X175260000Y-107313983D01*
X175736288Y-107219243D01*
X176024000Y-107027000D01*
X176024000Y-107950000D01*
X176062517Y-108143638D01*
X176172204Y-108307796D01*
X177168843Y-109304435D01*
X177054751Y-109579199D01*
X177054271Y-110128392D01*
X177263995Y-110635963D01*
X177651994Y-111024640D01*
X178159199Y-111235249D01*
X178708392Y-111235729D01*
X179215963Y-111026005D01*
X179604640Y-110638006D01*
X179815249Y-110130801D01*
X179815729Y-109581608D01*
X179606005Y-109074037D01*
X179218006Y-108685360D01*
X178710801Y-108474751D01*
X178161608Y-108474271D01*
X177884402Y-108588810D01*
X177036000Y-107740408D01*
X177036000Y-107027000D01*
X177323712Y-107219243D01*
X177800000Y-107313983D01*
X178276288Y-107219243D01*
X178680065Y-106949448D01*
X178946299Y-106551000D01*
X179705000Y-106551000D01*
X179898638Y-106512483D01*
X180062796Y-106402796D01*
X181078796Y-105386796D01*
X181188483Y-105222638D01*
X181227000Y-105029000D01*
X181227000Y-80391000D01*
X181188483Y-80197362D01*
X181078796Y-80033204D01*
X180063787Y-79018195D01*
X180259966Y-78937136D01*
X180536166Y-78661417D01*
X180685829Y-78300989D01*
X180686170Y-77910723D01*
X180537136Y-77550034D01*
X180261417Y-77273834D01*
X180211000Y-77252899D01*
X180211000Y-75565000D01*
X180172483Y-75371362D01*
X180062796Y-75207204D01*
X179773464Y-74917872D01*
X179773464Y-73295000D01*
X179746897Y-73153810D01*
X179663454Y-73024135D01*
X179536134Y-72937141D01*
X179385000Y-72906536D01*
X177485000Y-72906536D01*
X177343810Y-72933103D01*
X177214135Y-73016546D01*
X177127141Y-73143866D01*
X177096536Y-73295000D01*
X177096536Y-73717524D01*
X177024025Y-73542034D01*
X176649935Y-73167291D01*
X176160914Y-72964231D01*
X175631409Y-72963769D01*
X175142034Y-73165975D01*
X174767291Y-73540065D01*
X174564231Y-74029086D01*
X174563769Y-74558591D01*
X174765975Y-75047966D01*
X175140065Y-75422709D01*
X175389000Y-75526076D01*
X175389000Y-78869000D01*
X173343221Y-78869000D01*
X173551166Y-78661417D01*
X173700829Y-78300989D01*
X173701170Y-77910723D01*
X173552136Y-77550034D01*
X173276417Y-77273834D01*
X173226000Y-77252899D01*
X173226000Y-75565000D01*
X173187483Y-75371362D01*
X173077796Y-75207204D01*
X172788464Y-74917872D01*
X172788464Y-73295000D01*
X172761897Y-73153810D01*
X172678454Y-73024135D01*
X172551134Y-72937141D01*
X172400000Y-72906536D01*
X170500000Y-72906536D01*
X170358810Y-72933103D01*
X170229135Y-73016546D01*
X170142141Y-73143866D01*
X170111536Y-73295000D01*
X170111536Y-73717524D01*
X170039025Y-73542034D01*
X169664935Y-73167291D01*
X169175914Y-72964231D01*
X168646409Y-72963769D01*
X168157034Y-73165975D01*
X167782291Y-73540065D01*
X167579231Y-74029086D01*
X167578769Y-74558591D01*
X167780975Y-75047966D01*
X168155065Y-75422709D01*
X168404000Y-75526076D01*
X168404000Y-78869000D01*
X166358221Y-78869000D01*
X166566166Y-78661417D01*
X166715829Y-78300989D01*
X166716170Y-77910723D01*
X166567136Y-77550034D01*
X166291417Y-77273834D01*
X166241000Y-77252899D01*
X166241000Y-75565000D01*
X166202483Y-75371362D01*
X166092796Y-75207204D01*
X165803464Y-74917872D01*
X165803464Y-73295000D01*
X165776897Y-73153810D01*
X165693454Y-73024135D01*
X165566134Y-72937141D01*
X165415000Y-72906536D01*
X163515000Y-72906536D01*
X163373810Y-72933103D01*
X163244135Y-73016546D01*
X163157141Y-73143866D01*
X163126536Y-73295000D01*
X163126536Y-73717524D01*
X163054025Y-73542034D01*
X162679935Y-73167291D01*
X162190914Y-72964231D01*
X161661409Y-72963769D01*
X161172034Y-73165975D01*
X160797291Y-73540065D01*
X160594231Y-74029086D01*
X160593769Y-74558591D01*
X160795975Y-75047966D01*
X161170065Y-75422709D01*
X161419000Y-75526076D01*
X161419000Y-78869000D01*
X159373221Y-78869000D01*
X159581166Y-78661417D01*
X159730829Y-78300989D01*
X159731170Y-77910723D01*
X159582136Y-77550034D01*
X159306417Y-77273834D01*
X159256000Y-77252899D01*
X159256000Y-75565000D01*
X159217483Y-75371362D01*
X159107796Y-75207204D01*
X158818464Y-74917872D01*
X158818464Y-73295000D01*
X158791897Y-73153810D01*
X158708454Y-73024135D01*
X158581134Y-72937141D01*
X158430000Y-72906536D01*
X156530000Y-72906536D01*
X156388810Y-72933103D01*
X156259135Y-73016546D01*
X156172141Y-73143866D01*
X156141536Y-73295000D01*
X156141536Y-73717524D01*
X156069025Y-73542034D01*
X155694935Y-73167291D01*
X155205914Y-72964231D01*
X154676409Y-72963769D01*
X154187034Y-73165975D01*
X153812291Y-73540065D01*
X153609231Y-74029086D01*
X153608769Y-74558591D01*
X153810975Y-75047966D01*
X154185065Y-75422709D01*
X154434000Y-75526076D01*
X154434000Y-78869000D01*
X152400000Y-78869000D01*
X152206362Y-78907517D01*
X152042204Y-79017204D01*
X151511000Y-79548408D01*
X151511000Y-69977000D01*
X181229000Y-69977000D01*
X181229000Y-121031000D01*
M02*
