G04 #@! TF.FileFunction,Copper,L1,Top,Signal*
%FSLAX46Y46*%
G04 Gerber Fmt 4.6, Leading zero omitted, Abs format (unit mm)*
G04 Created by KiCad (PCBNEW 4.0.2-stable) date 20/06/2016 19:56:51*
%MOMM*%
G01*
G04 APERTURE LIST*
%ADD10C,0.100000*%
%ADD11C,1.000760*%
%ADD12R,1.300000X1.300000*%
%ADD13C,1.300000*%
%ADD14O,1.600000X1.600000*%
%ADD15R,1.900000X2.000000*%
%ADD16C,1.900000*%
%ADD17R,2.000000X2.000000*%
%ADD18C,2.000000*%
%ADD19C,1.998980*%
%ADD20R,1.727200X1.727200*%
%ADD21O,1.727200X1.727200*%
%ADD22C,1.524000*%
%ADD23R,2.235200X2.235200*%
%ADD24C,1.200000*%
%ADD25C,0.250000*%
G04 APERTURE END LIST*
D10*
D11*
X175895000Y-86995000D03*
X177165000Y-85725000D03*
X177165000Y-88265000D03*
X177165000Y-80645000D03*
X178435000Y-81915000D03*
X175895000Y-81915000D03*
X170180000Y-80645000D03*
X171450000Y-81915000D03*
X168910000Y-81915000D03*
X163195000Y-80645000D03*
X164465000Y-81915000D03*
X161925000Y-81915000D03*
X156210000Y-80645000D03*
X157480000Y-81915000D03*
X154940000Y-81915000D03*
D12*
X154305000Y-100330000D03*
D13*
X154305000Y-97830000D03*
D12*
X154305000Y-103505000D03*
D13*
X154305000Y-105505000D03*
D14*
X159385000Y-88265000D03*
X159385000Y-90805000D03*
X159385000Y-93345000D03*
X159385000Y-95885000D03*
X167005000Y-95885000D03*
X167005000Y-93345000D03*
X167005000Y-90805000D03*
X167005000Y-88265000D03*
D15*
X157480000Y-74295000D03*
D16*
X154940000Y-74295000D03*
D15*
X164465000Y-74295000D03*
D16*
X161925000Y-74295000D03*
D15*
X171450000Y-74295000D03*
D16*
X168910000Y-74295000D03*
D15*
X178435000Y-74295000D03*
D16*
X175895000Y-74295000D03*
D17*
X173355000Y-118745000D03*
D18*
X170815000Y-118745000D03*
D19*
X172085000Y-86995000D03*
X172085000Y-97155000D03*
X164465000Y-109855000D03*
X154305000Y-109855000D03*
X168275000Y-109855000D03*
X178435000Y-109855000D03*
D20*
X177800000Y-103505000D03*
D21*
X177800000Y-106045000D03*
X175260000Y-103505000D03*
X175260000Y-106045000D03*
X172720000Y-103505000D03*
X172720000Y-106045000D03*
D22*
X160805000Y-118745000D03*
X160805000Y-114245000D03*
X154305000Y-118745000D03*
X154305000Y-114245000D03*
X154305000Y-94535000D03*
X154305000Y-92035000D03*
X154305000Y-89535000D03*
D23*
X165100000Y-118750000D03*
X178450000Y-118750000D03*
D24*
X177800000Y-101600000D03*
X163830000Y-101600000D03*
X163830000Y-99695000D03*
X157480000Y-106680000D03*
X158750000Y-78105000D03*
X158750000Y-83820000D03*
X165735000Y-78105000D03*
X165735000Y-83820000D03*
X172720000Y-78105000D03*
X172720000Y-83820000D03*
X179705000Y-78105000D03*
X179705000Y-83820000D03*
D25*
X163830000Y-101600000D02*
X177800000Y-101600000D01*
X157480000Y-106680000D02*
X163830000Y-99695000D01*
X158750000Y-83820000D02*
X158750000Y-78105000D01*
X165735000Y-83820000D02*
X165735000Y-78105000D01*
X172720000Y-83820000D02*
X172720000Y-78105000D01*
X179705000Y-83820000D02*
X179705000Y-78105000D01*
M02*
